<?xml version="1.0" encoding="UTF-8"?>
<svg xmlns="http://www.w3.org/2000/svg" width="210mm" height="297mm" version="1.1" viewBox="0 0 595.276 841.89">
  <defs>
    <style>
      .cls-1 {
        fill: #707070;
      }

      .cls-2 {
        fill: #bebdbe;
      }

      .cls-3 {
        fill: #3f3f3f;
      }
    </style>
  </defs>
  <!-- Generator: Adobe Illustrator 28.6.0, SVG Export Plug-In . SVG Version: 1.2.0 Build 709)  -->
  <g>
    <g id="_Слой_1" data-name="Слой_1">
      <g id="Posterior_Body">
        <path class="cls-2" d="M502.271,431.319c-1.152-1.209-7.315-5.184-8.812-6.739-1.497-1.555-1.497-2.765-5.644-9.906-4.147-7.142-19.611-13.477-21.339-13.823-1.728-.346-5.097-4.579-5.961-6.911-3.562-9.619-11.922-42.505-15.551-71.879-3.628-29.373-17.278-45.961-24.708-56.155.346-28.164-6.114-34.031-9.676-43.024.346-7.084,2.805-22.479,1.144-42.717-1.316-16.03-21.359-35.152-33.8-36.88-8.056-1.119-12.498.806-22.923,0-10.425-.806-29.949-18.315-30.986-20.389-1.037-2.073-3.225-19.352-1.613-21.541,1.613-2.189,1.843-.115,3.456-4.608,1.613-4.492.743-12.57.743-12.57,0,0,.428-1.723.725-.533.173.691.518,1.411,1.296,1.814,1.207.626,2.708-2.284,4.291-5.04,4.209-7.328,8.151-21.309,2.333-23.067-1.059-.32-2.592,2.419-2.592,2.419,0-1.382,1.382-14.168-.691-22.117-1.661-6.366-7.878-12.731-12.786-16.587-5.995-4.711-18.223-5.043-21.268-5.066v-.002c-.063,0-.175,0-.271,0-.096,0-.208,0-.271,0v.002c-3.045.023-15.273.355-21.268,5.066-4.908,3.856-11.125,10.221-12.786,16.587-2.073,7.948-.691,20.734-.691,22.117,0,0-1.533-2.739-2.592-2.419-5.818,1.758-1.876,15.739,2.333,23.067,1.583,2.755,3.084,5.665,4.291,5.04.777-.403,1.123-1.123,1.296-1.814.298-1.19.725.533.725.533,0,0-.869,8.077.743,12.57,1.613,4.493,1.843,2.419,3.456,4.608,1.613,2.189-.576,19.467-1.613,21.541-1.037,2.073-20.561,19.582-30.986,20.389-10.425.806-14.866-1.119-22.923,0-12.441,1.728-32.484,20.849-33.8,36.88-1.662,20.238.798,35.632,1.144,42.717-3.562,8.993-10.022,14.86-9.676,43.024-7.43,10.194-21.08,26.782-24.708,56.155-3.628,29.373-11.988,62.26-15.551,71.879-.864,2.333-4.233,6.566-5.961,6.911-1.728.346-17.192,6.681-21.339,13.823-4.147,7.142-4.147,8.351-5.644,9.906-1.497,1.555-7.66,5.529-8.812,6.739-1.152,1.21-1.958,5.76,1.267,6.508,3.225.749,11.85-1.123,14.658-7.43,3.369-2.203,4.19-2.246,4.19-2.246,0,0,1.138,3.456.965,6.22-.173,2.765-5.846,11.231-8.092,16.242-2.246,5.011-8.985,14.255-7.171,16.847,1.814,2.592,4.406,2.16,5.529,1.296,1.123-.864,7.516-11.706,8.769-13.607,1.425-1.857,6.782-8.769,7.732-9.806-1.526,6.307-4.003,13.737-4.982,16.674-.979,2.937-5.545,11.78-5.587,14.802-.058,4.204,2.845,5.136,4.78,3.859,5.414-3.571,8.453-12.72,9.791-15.378,2.264-4.499,4.723-12.498,7.027-16.184-.576,4.492-1.982,10.684-2.736,15.925-.381,2.651-2.706,16.297.259,17.192,4.579,1.382,5.183-3.888,6.998-10.108s4.06-21.598,5.443-23.931c2.074.432,1.762,1.897,2.16,6.047.522,5.451.086,19.006,4.06,19.006s4.262-13.65,4.78-21.944c.518-8.294,3.225-12.671,4.608-19.467,1.382-6.796,4.602-16.238,4.377-24.19-.104-3.692-1.67-6.969,1.498-18.776,1.944-7.244,26.378-55.061,29.126-59.553,2.976-4.865,8.541-19.352,9.923-30.41,1.382-11.058,1.152-11.519,1.843-16.818.691-5.299,2.834-7.634,5.529-10.828,3.11-3.686,7.603-14.629,11.058-29.546,1.613-.058,2.106-1.39,2.88-.864,0,0,2.073,23.614,6.335,30.18,4.262,6.566,2.995,8.985,3.916,11.404.922,2.419.461,18.2-.23,26.954-.691,8.754-2.707,39.28-4.608,46.537-1.901,7.257-4.262,10.367-6.105,19.582-1.843,9.215-4.781,21.278-5.414,32.599,0,0-3.872,26.866-3.513,36.976.384,10.832-2.419,84.492,13.132,102.462-.749,3.513-.058,9.618.058,11.461.115,1.843-4.377,20.965-2.649,33.751,1.728,12.786,1.037,8.351.691,11.548-.346,3.197-14.168,46.047,6.566,124.953,1.239,4.715,1.728,14.226,1.728,19.237s-1.728,14.86-1.728,19.525-.173,6.911.864,9.849c1.037,2.937.864,7.775.173,11.404-.691,3.628-14.687,13.477-15.896,18.834-1.209,5.356-2.764,8.466-.518,10.021,2.246,1.555,3.283,0,3.283,0,0,0-.864,2.592.518,3.974,1.382,1.382,5.529,1.21,5.529,1.21,0,0,1.382.346,2.246,1.728.864,1.382,4.492,2.073,5.356,1.21.864-.864,1.382-.793,2.073.381.374.635,1.91,1.381,3.242,1.933,1.28.53,2.734.415,3.915-.311l2.692-1.657s2.246,2.592,2.765,2.765c.518.173,5.875,2.073,7.257,0,1.382-2.073,7.948-7.084,7.603-12.959-.346-5.875-.864-9.158-.691-11.231.173-2.073.691-5.184,1.555-8.294.864-3.11,1.901-4.492,1.21-10.367-.691-5.875-.173-6.22-.173-7.257s.864-3.801,1.037-6.911c.173-3.11-2.246-9.503-2.246-9.503,0,0-1.037-6.22-1.555-14.687-.518-8.466,1.21-41.814,4.665-52.872,3.456-11.058,5.483-14.52,5.875-17.278,4.147-29.201-2.588-60.642-3.801-71.763-.691-6.335,2.073-7.027,3.801-13.42,1.728-6.393,3.11-22.289,1.209-29.373-1.395-5.198,4.838-24.19,5.702-30.065.864-5.875,12.729-51.317,13.362-59.438.634-8.121,1.44-33.309-.691-37.11,1.014,0,3.922,2.018,5.161,2.37.054.046.144.055.251.047.107.008.197,0,.251-.047,1.239-.351,4.147-2.37,5.161-2.37-2.131,3.801-1.325,28.99-.691,37.11.634,8.121,12.498,53.563,13.362,59.438.864,5.875,7.096,24.867,5.702,30.065-1.901,7.084-.518,22.981,1.209,29.373,1.728,6.393,4.492,7.084,3.801,13.42-1.213,11.122-7.948,42.563-3.801,71.763.392,2.758,2.419,6.22,5.875,17.278,3.456,11.058,5.184,44.406,4.665,52.872-.518,8.467-1.555,14.687-1.555,14.687,0,0-2.419,6.393-2.246,9.503.173,3.11,1.037,5.875,1.037,6.911s.518,1.382-.173,7.257c-.691,5.875.346,7.257,1.21,10.367.864,3.11,1.382,6.22,1.555,8.294.173,2.073-.346,5.356-.691,11.231-.346,5.875,6.22,10.885,7.602,12.959,1.382,2.073,6.739.173,7.257,0,.518-.173,2.765-2.765,2.765-2.765l2.692,1.657c1.18.726,2.634.842,3.915.311,1.332-.552,2.868-1.298,3.242-1.933.691-1.174,1.21-1.245,2.073-.381.864.864,4.492.173,5.356-1.21.864-1.382,2.246-1.728,2.246-1.728,0,0,4.147.173,5.529-1.21,1.382-1.382.518-3.974.518-3.974,0,0,1.037,1.555,3.283,0,2.246-1.555.691-4.665-.518-10.021-1.209-5.356-15.205-15.205-15.896-18.834-.691-3.629-.864-8.467.173-11.404,1.037-2.937.864-5.184.864-9.849s-1.728-14.514-1.728-19.525.489-14.522,1.728-19.237c20.734-78.905,6.911-121.756,6.566-124.953-.346-3.196-1.037,1.238.691-11.548,1.728-12.786-2.765-31.908-2.649-33.751.115-1.843.806-7.948.058-11.461,15.551-17.97,12.748-91.63,13.132-102.462.359-10.11-3.513-36.976-3.513-36.976-.633-11.321-3.571-23.384-5.414-32.599-1.843-9.215-4.205-12.325-6.105-19.582-1.901-7.257-3.917-37.782-4.608-46.537-.691-8.754-1.152-24.535-.23-26.954.922-2.419-.345-4.838,3.916-11.404,4.262-6.566,6.335-30.18,6.335-30.18.774-.526,1.267.806,2.88.864,3.456,14.917,7.948,25.86,11.058,29.546,2.695,3.194,4.838,5.529,5.529,10.828.691,5.299.461,5.76,1.843,16.818,1.382,11.058,6.947,25.545,9.923,30.41,2.748,4.492,27.183,52.309,29.126,59.553,3.168,11.807,1.602,15.083,1.498,18.776-.224,7.953,2.995,17.394,4.377,24.19,1.382,6.796,4.089,11.174,4.608,19.467.518,8.294.806,21.944,4.78,21.944s3.538-13.555,4.06-19.006c.398-4.151.086-5.616,2.16-6.047,1.382,2.333,3.629,17.71,5.443,23.931,1.814,6.22,2.419,11.49,6.998,10.108,2.965-.895.641-14.541.259-17.192-.754-5.241-2.16-11.433-2.736-15.925,2.304,3.686,4.762,11.685,7.027,16.184,1.338,2.658,4.377,11.807,9.791,15.378,1.936,1.277,4.838.346,4.78-3.859-.041-3.022-4.608-11.865-5.587-14.802-.979-2.937-3.456-10.367-4.982-16.674.95,1.037,6.307,7.948,7.732,9.806,1.253,1.901,7.646,12.743,8.769,13.607,1.123.864,3.715,1.296,5.529-1.296,1.814-2.592-4.924-11.836-7.171-16.847-2.246-5.011-7.919-13.477-8.092-16.242-.173-2.765.965-6.22.965-6.22,0,0,.821.043,4.19,2.246,2.808,6.307,11.433,8.179,14.658,7.43,3.225-.749,2.419-5.299,1.267-6.508Z"/>
        <path class="cls-1" d="M320.529,16.001c-7.351-2.642-14.266-5.032-22.925-4.296-8.659-.736-15.575,1.654-22.925,4.296-11.433,4.109-14.848,19.447-14.61,30.513,0,4.569,1.186,9.11,2.194,13.533,1.033,4.533,1.604,8.979,2.11,13.604.038.343.096.726.372.934.658.497,1.413-.52,1.556-1.332.65-3.691.796-7.302.792-11.111-.017-16.624,5.167-8.1,6.035-23.742.222-4.01,2.104-6.757,6.539-6.545,6.116.293,11.95-.341,17.937-1.442,5.987,1.101,11.822,1.735,17.937,1.442,4.435-.212,6.317,2.535,6.539,6.545.868,15.642,6.051,7.118,6.035,23.742-.004,3.809.142,7.42.792,11.111.143.812.898,1.829,1.556,1.332.275-.208.334-.591.372-.934.505-4.625,1.076-9.071,2.11-13.604,1.009-4.424,2.194-8.964,2.194-13.533.238-11.066-3.177-26.405-14.61-30.513Z"/>
        <g>
          <path class="cls-3" d="M226.763,187.139c-1.11,14.865,2.785,32.845,14.754,39.98,4.395,2.62,9.492,3.764,14.508,4.776,15.745,3.176,34.78-4.665,36.319-19.053,1.646-15.393,3.99-33.818-2.921-47.295-4.597-8.965-9.04-8.985-14.051-9.503s-20.506-1.037-26.554,1.728c-7.862,3.594-17.123,8.812-19.884,17.508-1.098,3.458-1.847,7.526-2.17,11.86Z"/>
          <path class="cls-3" d="M231.597,221.529c4.838,5.702,12.039,9.693,16.184,11.814,2.092,1.071,2.304,5.119.576,5.637s-15.896-4.536-17.624-7.711-2.246-7.84-1.901-9.74c.346-1.901,2.765,0,2.765,0Z"/>
          <path class="cls-3" d="M226.771,234.913c-.065.384-.057.769.044,1.145,1.608,5.964,7.282,15.951,9.563,17.091,1.382.691,7.775-6.22,8.639-6.739.864-.518,2.765-3.11,2.765-3.11,0,0-13.733-4.963-16.343-7.343-.924-.843-3.918-5.5-3.918-5.5l-.75,4.456Z"/>
          <path class="cls-3" d="M227.738,245.892s-1.21,9.158,2.073,16.069,4.665,7.775,4.665,7.775c0,0,4.147-11.058,2.419-12.786s-9.158-11.058-9.158-11.058Z"/>
          <path class="cls-3" d="M237.114,290.557c2.189,3.34,16.687,14.255,18.184,16.098,1.497,1.843-.014,13.103.49,17.509-5.76-1.382-17.991-11.461-18.798-15.378-.806-3.917.124-18.229.124-18.229Z"/>
          <path class="cls-3" d="M236.378,272.52c.806.864,13.564,11.577,18.893,14.085,2.283,1.075.516,17.707.516,17.707,0,0-15.762-12.705-18.14-16.506-2.378-3.801-1.471-6.247-1.701-7.859-.23-1.613.432-7.427.432-7.427Z"/>
          <path class="cls-3" d="M263.159,240.363c-3.086,2.094-3.11,8.121-3.628,10.54-.518,2.419,1.209,13.304,1.209,13.304,0,0,1.728,8.639,2.419,9.676.865,1.293,23.573-13.398,25.758-14.752,1.84-1.14,4.222-1.117,5.084-3.52,1.419-3.953.674-8.78.503-12.938-.15-3.656.068-11.444-3.431-13.736-3.134-2.053-7.36,1.476-10.154,2.71-4.823,2.129-9.656,4.28-14.324,6.735-1.168.614-2.342,1.239-3.436,1.98Z"/>
          <path class="cls-3" d="M291.355,263.617c-2.32.556-2.731,1.335-4.96,2.409-2.755,1.328-5.468,2.746-8.144,4.226-4.152,2.296-9.261,4.681-12.539,8.216-.127.137-.252.275-.364.426-2.649,3.571-2.765,15.666-2.534,16.472.23.806,30.132,3.168,31.62-1.094,1.258-3.602.295-7.426.432-11.181.199-5.423.495-11.886-.086-16.724-.048-.4-2.333-3.011-3.424-2.75Z"/>
          <path class="cls-3" d="M262.734,302.853c-1.879,5.529-.842,19.582,1.462,21.541,2.304,1.958,26.494,1.87,29.028,1.754,2.534-.115,2.377-12.237,2.419-16.153.042-3.916.306-10.577-1.191-11.153-1.497-.576-12.401-.481-15.742.786s-15.976,3.225-15.976,3.225Z"/>
          <path class="cls-3" d="M262.734,330.729c.54,8.524,5.867,78.281,26.761,83.197,1.958.461,4.048,2.568,4.638,1.417,1.555-3.686,1.553-77.703,1.553-80.928s-4.943-3.556-7.477-4.247c-2.534-.691-23.013-1.282-24.244-.361l-1.231.921Z"/>
          <path class="cls-3" d="M236.903,314.121c.132-.323.56-.375.801-.123,9.73,10.168,16.542,13.251,18.429,14.773,1.785,1.44,2.304,33.06,4.377,40.893.933,3.525,2.727,7.034,1.162,7.792-2.073,1.004-7.541-1.515-9.097-3.213l-18.558-20.245s.412-33.807,2.887-39.877Z"/>
          <path class="cls-3" d="M252.792,243.646c-7.833,6.681-11.311,9.868-12.153,11.346-.937,1.646,10.655,11.001,13.765,12.037,3.11,1.037,1.382-8.524,1.382-11.173s.23-13.016,0-13.708c-.23-.691-2.995,1.497-2.995,1.497Z"/>
          <path class="cls-3" d="M239.622,261.282c.207-.656,1.027-.882,1.527-.409,3.581,3.381,13.459,8.44,14.019,10.246.434,1.401,1.37,11.62.103,11.965-1.267.346-18.591-11.663-18.375-12.752.287-1.448,1.912-6.471,2.726-9.049Z"/>
          <path class="cls-3" d="M275.427,104.899c7.775,6.278,7.924,13.142,11.346,19.986,9.849,19.698,6.263,31.583,3.977,29.134-6.66-7.133-13.595-29.94-14.632-31.841s-.691-17.279-.691-17.279Z"/>
          <path class="cls-3" d="M274.229,133.466c-.922,7.142-.353,9.503,1.143,13.304,1.495,3.801,9.904,7.775,10.71,8.351-4.55-10.885-8.754-18.373-10.71-25.169-1.615.346-1.143,3.513-1.143,3.513Z"/>
          <path class="cls-3" d="M268.458,132.142c-3.917,4.723-18.776,14.485-22.923,15.781-.691,2.678,21.08,5.126,23.844,2.937,2.765-2.189,2.765-16.299,2.304-18.718-.461-2.419-3.225,0-3.225,0Z"/>
          <path class="cls-3" d="M241.798,157.599c-2.08,1.355-4.93,1.979-7.186,3.019-6.647,3.063-12.813,6.385-12.751,14.538.048,6.345.81,13.214-2.627,18.548-2.188,3.395-5.075,6.244-7.634,9.347-2.531,3.068-4.025,5.849-8.338,3.594-10.118-5.289-17.109-15.684-16.215-27.328.494-6.438,3.415-12.654,7.999-17.194,5.089-5.04,10.033-9.995,16.604-13.184,9.005-4.369,19.032-2.763,27.149,2.833,2.937,2.025,3.001,5.826,3.001,5.826Z"/>
          <path class="cls-3" d="M211.725,226.243c-4.234,15.75-20.53,50.82-20.795,51.645-.649,2.016.624,4.682,2.278,5.885,2.591,1.884,5.315-2.103,6.712-3.826,9.446-11.651,17.787-33.573,19.122-38.951,1.599-6.444,6.681-15.551,4.608-26.378-2.073-10.828-3.917-15.896-4.838-14.744-1.214,1.522-1.478,4.704-1.95,6.523-1.276,4.914-1.949,9.993-3.345,14.838-.489,1.696-1.327,3.285-1.791,5.009Z"/>
          <path class="cls-3" d="M196.119,214.119c-5.361,2.765-14.451,18.56-15.723,26.436-2.361,14.615-1.644,22.577-1.785,26.897-.141,4.32,7.603,3.456,14.053-2.419,4.017-3.659,14.828-28.222,12.671-40.355-1.575-8.86-4.377-12.633-9.215-10.559Z"/>
          <path class="cls-3" d="M176.191,273.923c5.78-2.878,2.97,34.978-1.037,44.942-4.262,10.6-9.823,24.717-15.205,37.667-3.218,7.744-12.325,35.824-16.242,37.667-3.917,1.843-.23-16.703,1.613-24.075,1.843-7.372,7.142-38.028,8.754-43.78,1.613-5.752.461-21.785,4.608-27.706,4.147-5.921,8.985-20.47,17.509-24.715Z"/>
          <path class="cls-3" d="M191.914,292.947c2.995,11.289-1.699,22.03-4.003,28.711-2.304,6.681-6.825,13.218-10.972,19.669-4.147,6.451-15.568,33.295-18.258,40.432-6.445,17.106-9.561,12.21-7.027,5.76,2.534-6.451,7.315-21.08,10.31-27.991,2.995-6.911,3.859-11.006,7.43-18.834,3.513-7.701,7.545-15.954,10.079-22.865,2.534-6.911,3.686-23.729,7.833-24.881,4.147-1.152,4.608,0,4.608,0Z"/>
          <path class="cls-3" d="M181.432,340.492c-5.089,6.451-9.024,14.922-11.577,20.878-2.359,5.504-4.624,11.051-6.816,16.624-2.031,5.165-4.106,10.358-5.695,15.68-.265.887-1.054,2.194-.679,3.122.956-.773,1.421-1.964,2.023-2.996.634-1.086,1.232-2.192,1.811-3.307,1.369-2.636,2.636-5.325,3.869-8.027,2.797-6.131,5.41-12.344,8.097-18.523,2.309-5.311,4.597-10.675,7.387-15.756.139-.253.279-.505.422-.755,6.681-11.749,8.754-14.975,11.519-21.886,2.765-6.911,8.754-18.2,7.833-20.274-.642-1.444-2.957-3.755-3.968-4.492-.353-.257-.658,1.983-.691,2.419-1.091,14.395-8.927,31.452-13.535,37.293Z"/>
          <path class="cls-3" d="M243.807,570.037c3.629,0,15.729.864,17.108,2.246s3.971,20.561-3.631,30.929c-7.603,10.367-14.168,5.011-16.242-1.037-2.073-6.048-8.466-22.98-6.048-28.164s8.812-3.974,8.812-3.974Z"/>
          <path class="cls-3" d="M266.788,581.786c-2.592,11.922-4.308,17.106-12.441,33.175-6.666,13.172-8.993,25.399-5.879,25.054,3.114-.346,14.345-26.284,16.073-31.106,1.728-4.822,6.927-19.59,7.343-22.631.588-4.293-.777-7.084-1.814-8.294-1.037-1.21-3.283,3.801-3.283,3.801Z"/>
          <path class="cls-3" d="M265.809,617.092c-2.995,9.215-13.592,23.499-14.284,32.484-.691,8.985,6.292,66.465,5.529,73.607,2.806-4.876,6.329-27.42,11.289-39.28,3.055-7.304,5.384-17.028,0-49.762-1.57-9.548-2.534-17.048-2.534-17.048Z"/>
          <path class="cls-3" d="M234.457,590.944c3.822,25.918,16.608,87.775,17.99,115.42s.346,24.017-.864,26.263c-1.209,2.246-12.268-28.452-15.723-45.73-3.456-17.279-7.603-59.438-5.99-75.565,1.613-16.127.922-28.567,2.534-27.876,1.613.691,2.053,7.487,2.053,7.487Z"/>
          <path class="cls-3" d="M224.571,621.009c-1.613,18.891-.922,54.139,1.613,68.884,2.534,14.744,10.367,44.463,11.058,49.532s-1.613,10.828,0,12.671c1.613,1.843,7.142-9.673,6.22-19.35-.921-9.678-7.906-34.328-9.828-44.004-1.921-9.676-6.76-34.096-6.529-42.62.23-8.524.23-19.352.691-27.876.461-8.524,1.613-11.98,0-11.98s-3.225,14.744-3.225,14.744Z"/>
          <path class="cls-3" d="M236.505,773.751c4.304,7.89,19.352,11.289,21.425,18.891,3.225-2.995,5.76-15.205,4.147-22.117-1.613-6.911-2.995-11.98-4.608-14.284-1.613-2.304-2.083-3.458-3.686-5.76-1.434-2.059-6.335-7.228-10.022-3.081-3.686,4.147-3.04,6.076-3.881,11.605-.841,5.529-4.758,12.21-3.376,14.744Z"/>
          <path class="cls-3" d="M249.509,738.675c8.466,7.66,10.713,18.661,10.713,15.896s.518-10.54-2.592-13.996-4.804-3.974-6.808-3.974-1.313,2.073-1.313,2.073Z"/>
          <path class="cls-3" d="M239.142,786.191c-2.592,6.739-17.106,23.096-18.834,26.378-1.728,3.283,9.906,6.681,12.325,6.681s9.906,1.44,11.634,2.304c1.728.864,2.131-5.472,2.304-7.545.173-2.073,6.6-12.441,4.25-17.451-2.35-5.011,3.468-3.456-1.428-6.566-4.896-3.11-10.252-3.801-10.252-3.801Z"/>
          <path class="cls-3" d="M252.677,801.224c0,3.974-.139,8.812-2.488,14.687-2.35,5.875.518,7.603,1.244,7.257s5.737-1.382,5.737-1.382c0,0,1.901-3.11,1.382-5.011-.518-1.901,4.608-7.385,1.843-11.922s-3.468-9.734-4.147-11.289c-.679-1.555-3.571,7.66-3.571,7.66Z"/>
          <path class="cls-3" d="M137.785,400.651c.952-.165,1.912-.208,2.875-.094,5.489.65,15.052,1.756,17.232,7.963.253.721.272,1.5.279,2.263.073,8.09-.91,16.207-2.992,24.028-.391,1.469-.848,2.953-1.719,4.199-4.913,7.033-18.156,2.252-23.698-1.257-5.005-3.169-12.53-8.074-12.877-14.513-.309-5.724,3.115-11.867,7.725-15.136,3.776-2.677,8.375-6.621,13.175-7.453Z"/>
          <path class="cls-3" d="M145.792,445.346c-.066,3.659-.117,7.324-.093,10.983.021,2.354.092,4.711.328,7.055.196,1.949.243,5.565,1.473,7.101.732.914,2.794-4.711,2.862-5.052.32-1.595.264-21.431,1.128-21.531-1.926.222-3.871.804-5.698,1.443Z"/>
          <path class="cls-3" d="M134.319,445.047c-1.523,6.391-2.055,13.079-3.14,19.561-.355,2.121-.713,4.241-1.042,6.365-.436,2.811-.916,5.13-.602,8.022.029.268.069.553.242.76.8.954,2.703-.017,3.288-.743.646-.801.908-1.841,1.073-2.856.46-2.826,1.13-5.615,1.701-8.424.865-4.257,1.679-8.525,2.54-12.783.529-2.616,1.058-5.233,1.587-7.849.064-.318.126-.663-.015-.956-.287-.599-5.617-1.159-5.633-1.095Z"/>
          <path class="cls-3" d="M124.193,442.211c-.915.95-1.531,4.44-1.822,5.309-.794,2.38-1.639,4.742-2.51,7.095-1.709,4.62-3.522,9.2-5.27,13.805-1.166,3.071-2.696,6.035-2.656,9.405.022,1.801,2.25.911,3.191.465,3.017-1.428,3.4-3.799,4.533-6.595.877-2.162,1.774-4.316,2.679-6.467,2.805-6.668,5.649-13.31,8.848-19.802.119-.242.241-.49.268-.759.244-2.389-5.37-2.642-6.781-2.696-.169-.006-.329.081-.482.239Z"/>
          <path class="cls-3" d="M116.225,434.821c-1.627,1.365-5.061,9.13-5.662,10.239-1.724,3.186-3.444,6.375-5.163,9.565-1.388,2.576-4.108,5.953-4.429,8.92-.097.73-.772,4.757,1.019,3.941.268-.122.473-.349.668-.57,4.724-5.354,8.395-11.299,12.451-17.141,1.19-1.713,2.321-3.469,3.582-5.132,1.086-1.432,2.945-2.766,3.802-4.299.372-.666.327-1.477.271-2.238-.02-.273-.044-.559-.188-.791-.133-.214-.353-.357-.568-.489-1.638-1.003-3.434-1.749-5.3-2.202-.132-.032-.296.04-.483.197Z"/>
          <path class="cls-3" d="M114.91,410.902c-2.88,2.765-7.603,8.16-9.561,12.259-1.958,4.098-10.367,5.711-10.482,8.245-.115,2.534-.691,4.147.461,4.262,1.152.115,5.529.346,8.178-2.073,2.649-2.419,4.608-3.801,6.335-6.22,1.728-2.419,3.225-5.299,4.032-9.1.806-3.801,3.11-9.1,3.11-9.1l-2.073,1.728Z"/>
          <path class="cls-3" d="M297.515,110.602c.194,8.985,1.311,24.074.123,27.414-1.188,3.34-4.036-8.524-7.911-16.703-3.875-8.178-2.416-5.107-3.453-8.793-1.037-3.686-7.103-3.341-2.957-3.686,4.147-.346,14.198,1.767,14.198,1.767Z"/>
          <path class="cls-3" d="M249.276,377.003c7.091,5.299,29.207,33.405,36.411,68.653,0,0-3.772,12.623-8.832,11.519-1.125-.246-17.379-52.008-30.337-76.025-3.715-6.885-3.974-10.54-3.974-10.54l6.732,6.393Z"/>
          <path class="cls-3" d="M238.624,377.209c8.806,29.316,38.107,140.609,37.581,157.926,8.807-25.201,1.584-58.344-9.244-90.194-9.055-26.635-28.337-67.732-28.337-67.732Z"/>
          <path class="cls-3" d="M234.016,383.486c5.529,25.788,24.43,67.339,26.827,103.326,2.31,34.679-1.773,69.811-8.223,72.575-6.451,2.765-17.414-42.887-19.294-50.574-4.768-19.495-15.251-55.099-14.099-73.491.994-15.877,3.668-24.197,5.805-31.562,2.871-9.895,8.985-20.274,8.985-20.274Z"/>
          <path class="cls-3" d="M221.691,472.528c1.152,10.367,8.121,44.291,16.933,66.234,4.104,10.219,5.299,21.195,2.073,24.651-3.225,3.456-6.911-15.666-11.98-23.729s-9.3-34.09-9.579-44.579c-.364-13.687-2.631-24.42-1.479-28.106,1.152-3.686,4.032,5.529,4.032,5.529Z"/>
          <path class="cls-3" d="M263.404,494.76c3.556,39.683-6.318,58.977-1.051,67.271,5.267,8.294,9.404,4.694,8.754.115-1.154-8.131,5.011-21.348,0-44.809-2.649-12.404-7.703-22.577-7.703-22.577Z"/>
          <path class="cls-3" d="M287.58,450.758c-4.262,6.335-10.021,12.231-9.906,14.237.115,2.005,5.99,32.415,5.644,35.871,3.571-3.456,6.911-44.924,6.681-48.726-.23-3.801-2.419-1.382-2.419-1.382Z"/>
          <path class="cls-3" d="M368.443,187.139c1.11,14.865-2.785,32.845-14.754,39.98-4.395,2.62-9.492,3.764-14.508,4.776-15.745,3.176-34.78-4.665-36.319-19.053-1.646-15.393-3.99-33.818,2.921-47.295,4.597-8.965,9.04-8.985,14.051-9.503s20.506-1.037,26.554,1.728c7.862,3.594,17.123,8.812,19.884,17.508,1.098,3.458,1.847,7.526,2.17,11.86Z"/>
          <path class="cls-3" d="M363.61,221.529c-4.838,5.702-12.039,9.693-16.184,11.814-2.092,1.071-2.304,5.119-.576,5.637s15.896-4.536,17.624-7.711c1.728-3.175,2.246-7.84,1.901-9.74-.346-1.901-2.765,0-2.765,0Z"/>
          <path class="cls-3" d="M368.436,234.913c.065.384.058.769-.044,1.145-1.608,5.964-7.282,15.951-9.563,17.091-1.382.691-7.775-6.22-8.639-6.739-.864-.518-2.765-3.11-2.765-3.11,0,0,13.733-4.963,16.343-7.343.924-.843,3.918-5.5,3.918-5.5l.75,4.456Z"/>
          <path class="cls-3" d="M367.468,245.892s1.21,9.158-2.073,16.069c-3.283,6.911-4.665,7.775-4.665,7.775,0,0-4.147-11.058-2.419-12.786,1.728-1.728,9.158-11.058,9.158-11.058Z"/>
          <path class="cls-3" d="M358.093,290.557c-2.189,3.34-16.687,14.255-18.184,16.098-1.497,1.843.014,13.103-.49,17.509,5.76-1.382,17.991-11.461,18.798-15.378.806-3.917-.124-18.229-.124-18.229Z"/>
          <path class="cls-3" d="M358.829,272.52c-.806.864-13.564,11.577-18.893,14.085-2.283,1.075-.516,17.707-.516,17.707,0,0,15.762-12.705,18.14-16.506,2.378-3.801,1.471-6.247,1.701-7.859s-.432-7.427-.432-7.427Z"/>
          <path class="cls-3" d="M332.048,240.363c3.086,2.094,3.11,8.121,3.629,10.54.518,2.419-1.21,13.304-1.21,13.304,0,0-1.728,8.639-2.419,9.676-.865,1.293-23.573-13.398-25.758-14.752-1.84-1.14-4.222-1.117-5.084-3.52-1.419-3.953-.674-8.78-.503-12.938.15-3.656-.068-11.444,3.431-13.736,3.134-2.053,7.36,1.476,10.154,2.71,4.823,2.129,9.657,4.28,14.324,6.735,1.168.614,2.342,1.239,3.436,1.98Z"/>
          <path class="cls-3" d="M303.852,263.617c2.32.556,2.731,1.335,4.96,2.409,2.755,1.328,5.468,2.746,8.144,4.226,4.152,2.296,9.261,4.681,12.539,8.216.127.137.252.275.364.426,2.649,3.571,2.765,15.666,2.534,16.472-.23.806-30.132,3.168-31.62-1.094-1.258-3.602-.295-7.426-.432-11.181-.199-5.423-.495-11.886.086-16.724.048-.4,2.333-3.011,3.424-2.75Z"/>
          <path class="cls-3" d="M332.472,302.853c1.879,5.529.842,19.582-1.462,21.541-2.304,1.958-26.494,1.87-29.028,1.754-2.534-.115-2.377-12.237-2.419-16.153-.042-3.916-.306-10.577,1.191-11.153,1.498-.576,12.401-.481,15.742.786,3.34,1.267,15.976,3.225,15.976,3.225Z"/>
          <path class="cls-3" d="M332.472,330.729c-.54,8.524-5.867,78.281-26.761,83.197-1.958.461-4.048,2.568-4.638,1.417-1.555-3.686-1.553-77.703-1.553-80.928s4.943-3.556,7.477-4.247c2.534-.691,23.013-1.282,24.245-.361l1.231.921Z"/>
          <path class="cls-3" d="M358.304,314.121c-.132-.323-.56-.375-.801-.123-9.73,10.168-16.542,13.251-18.429,14.773-1.785,1.44-2.304,33.06-4.377,40.893-.933,3.525-2.727,7.034-1.162,7.792,2.073,1.004,7.541-1.515,9.097-3.213l18.558-20.245s-.412-33.807-2.887-39.877Z"/>
          <path class="cls-3" d="M342.415,243.646c7.833,6.681,11.311,9.868,12.153,11.346.937,1.646-10.655,11.001-13.765,12.037s-1.382-8.524-1.382-11.173-.23-13.016,0-13.708c.23-.691,2.995,1.497,2.995,1.497Z"/>
          <path class="cls-3" d="M355.585,261.282c-.207-.656-1.026-.882-1.527-.409-3.581,3.381-13.459,8.44-14.019,10.246-.434,1.401-1.37,11.62-.103,11.965,1.267.346,18.591-11.663,18.375-12.752-.287-1.448-1.912-6.471-2.726-9.049Z"/>
          <path class="cls-3" d="M319.78,104.899c-7.775,6.278-7.924,13.142-11.346,19.986-9.849,19.698-6.263,31.583-3.977,29.134,6.66-7.133,13.595-29.94,14.632-31.841s.691-17.279.691-17.279Z"/>
          <path class="cls-3" d="M320.978,133.466c.922,7.142.353,9.503-1.143,13.304-1.495,3.801-9.904,7.775-10.71,8.351,4.55-10.885,8.754-18.373,10.71-25.169,1.615.346,1.143,3.513,1.143,3.513Z"/>
          <path class="cls-3" d="M326.749,132.142c3.916,4.723,18.776,14.485,22.923,15.781.691,2.678-21.08,5.126-23.844,2.937-2.765-2.189-2.765-16.299-2.304-18.718.461-2.419,3.225,0,3.225,0Z"/>
          <path class="cls-3" d="M353.409,157.599c2.08,1.355,4.93,1.979,7.186,3.019,6.647,3.063,12.813,6.385,12.751,14.538-.048,6.345-.81,13.214,2.627,18.548,2.188,3.395,5.075,6.244,7.634,9.347,2.531,3.068,4.025,5.849,8.338,3.594,10.118-5.289,17.109-15.684,16.215-27.328-.494-6.438-3.415-12.654-7.999-17.194-5.089-5.04-10.033-9.995-16.604-13.184-9.005-4.369-19.032-2.763-27.149,2.833-2.937,2.025-3.001,5.826-3.001,5.826Z"/>
          <path class="cls-3" d="M383.482,226.243c4.234,15.75,20.53,50.82,20.795,51.645.649,2.016-.624,4.682-2.278,5.885-2.591,1.884-5.315-2.103-6.712-3.826-9.446-11.651-17.787-33.573-19.122-38.951-1.599-6.444-6.681-15.551-4.608-26.378,2.073-10.828,3.916-15.896,4.838-14.744,1.214,1.522,1.478,4.704,1.95,6.523,1.276,4.914,1.949,9.993,3.345,14.838.489,1.696,1.327,3.285,1.791,5.009Z"/>
          <path class="cls-3" d="M399.088,214.119c5.361,2.765,14.451,18.56,15.723,26.436,2.361,14.615,1.644,22.577,1.785,26.897.141,4.32-7.603,3.456-14.053-2.419-4.017-3.659-14.828-28.222-12.671-40.355,1.575-8.86,4.377-12.633,9.215-10.559Z"/>
          <path class="cls-3" d="M419.016,273.923c-5.779-2.878-2.97,34.978,1.037,44.942,4.262,10.6,9.824,24.717,15.205,37.667,3.218,7.744,12.325,35.824,16.242,37.667,3.916,1.843.23-16.703-1.613-24.075-1.843-7.372-7.142-38.028-8.754-43.78-1.613-5.752-.461-21.785-4.608-27.706-4.147-5.921-8.985-20.47-17.509-24.715Z"/>
          <path class="cls-3" d="M403.293,292.947c-2.995,11.289,1.699,22.03,4.003,28.711,2.304,6.681,6.825,13.218,10.972,19.669,4.147,6.451,15.568,33.295,18.258,40.432,6.445,17.106,9.561,12.21,7.027,5.76-2.534-6.451-7.315-21.08-10.309-27.991-2.995-6.911-3.859-11.006-7.43-18.834-3.513-7.701-7.545-15.954-10.079-22.865-2.534-6.911-3.686-23.729-7.833-24.881-4.147-1.152-4.608,0-4.608,0Z"/>
          <path class="cls-3" d="M413.775,340.492c5.089,6.451,9.024,14.922,11.577,20.878,2.359,5.504,4.624,11.051,6.816,16.624,2.031,5.165,4.106,10.358,5.695,15.68.265.887,1.054,2.194.679,3.122-.956-.773-1.421-1.964-2.023-2.996-.634-1.086-1.232-2.192-1.811-3.307-1.369-2.636-2.636-5.325-3.869-8.027-2.797-6.131-5.41-12.344-8.097-18.523-2.309-5.311-4.597-10.675-7.387-15.756-.139-.253-.279-.505-.422-.755-6.681-11.749-8.754-14.975-11.519-21.886-2.765-6.911-8.754-18.2-7.833-20.274.642-1.444,2.957-3.755,3.968-4.492.353-.257.658,1.983.691,2.419,1.091,14.395,8.927,31.452,13.535,37.293Z"/>
          <path class="cls-3" d="M351.399,570.037c-3.628,0-15.729.864-17.108,2.246s-3.972,20.561,3.631,30.929c7.603,10.367,14.168,5.011,16.242-1.037,2.073-6.048,8.466-22.98,6.048-28.164s-8.812-3.974-8.812-3.974Z"/>
          <path class="cls-3" d="M328.419,581.786c2.592,11.922,4.308,17.106,12.441,33.175,6.666,13.172,8.993,25.399,5.879,25.054-3.114-.346-14.345-26.284-16.073-31.106-1.728-4.822-6.927-19.59-7.343-22.631-.588-4.293.778-7.084,1.814-8.294,1.037-1.21,3.283,3.801,3.283,3.801Z"/>
          <path class="cls-3" d="M329.398,617.092c2.995,9.215,13.592,23.499,14.284,32.484.691,8.985-6.292,66.465-5.529,73.607-2.806-4.876-6.329-27.42-11.289-39.28-3.055-7.304-5.383-17.028,0-49.762,1.57-9.548,2.534-17.048,2.534-17.048Z"/>
          <path class="cls-3" d="M360.75,590.944c-3.822,25.918-16.608,87.775-17.99,115.42-1.382,27.646-.346,24.017.864,26.263,1.21,2.246,12.268-28.452,15.723-45.73,3.456-17.279,7.603-59.438,5.99-75.565-1.613-16.127-.922-28.567-2.534-27.876-1.613.691-2.053,7.487-2.053,7.487Z"/>
          <path class="cls-3" d="M370.636,621.009c1.613,18.891.922,54.139-1.613,68.884-2.534,14.744-10.367,44.463-11.058,49.532-.691,5.068,1.613,10.828,0,12.671-1.613,1.843-7.142-9.673-6.22-19.35.922-9.678,7.906-34.328,9.828-44.004,1.922-9.676,6.759-34.096,6.529-42.62-.23-8.524-.23-19.352-.691-27.876-.461-8.524-1.613-11.98,0-11.98s3.225,14.744,3.225,14.744Z"/>
          <path class="cls-3" d="M358.702,773.751c-4.304,7.89-19.352,11.289-21.425,18.891-3.225-2.995-5.759-15.205-4.147-22.117,1.613-6.911,2.995-11.98,4.608-14.284,1.613-2.304,2.083-3.458,3.686-5.76,1.434-2.059,6.335-7.228,10.021-3.081s3.04,6.076,3.881,11.605c.841,5.529,4.758,12.21,3.376,14.744Z"/>
          <path class="cls-3" d="M345.698,738.675c-8.466,7.66-10.713,18.661-10.713,15.896s-.518-10.54,2.592-13.996c3.11-3.456,4.804-3.974,6.808-3.974s1.313,2.073,1.313,2.073Z"/>
          <path class="cls-3" d="M356.065,786.191c2.592,6.739,17.106,23.096,18.834,26.378,1.728,3.283-9.906,6.681-12.325,6.681s-9.906,1.44-11.634,2.304c-1.728.864-2.131-5.472-2.304-7.545s-6.6-12.441-4.25-17.451c2.35-5.011-3.468-3.456,1.428-6.566,4.896-3.11,10.252-3.801,10.252-3.801Z"/>
          <path class="cls-3" d="M342.53,801.224c0,3.974.139,8.812,2.488,14.687,2.35,5.875-.518,7.603-1.244,7.257s-5.737-1.382-5.737-1.382c0,0-1.901-3.11-1.382-5.011.518-1.901-4.608-7.385-1.843-11.922,2.765-4.537,3.468-9.734,4.147-11.289.679-1.555,3.571,7.66,3.571,7.66Z"/>
          <path class="cls-3" d="M457.422,400.651c-.952-.165-1.912-.208-2.875-.094-5.489.65-15.052,1.756-17.232,7.963-.253.721-.272,1.5-.279,2.263-.073,8.09.91,16.207,2.992,24.028.391,1.469.848,2.953,1.719,4.199,4.913,7.033,18.156,2.252,23.698-1.257,5.005-3.169,12.53-8.074,12.877-14.513.309-5.724-3.115-11.867-7.725-15.136-3.776-2.677-8.375-6.621-13.175-7.453Z"/>
          <path class="cls-3" d="M449.415,445.346c.066,3.659.117,7.324.093,10.983-.021,2.354-.092,4.711-.328,7.055-.196,1.949-.243,5.565-1.473,7.101-.732.914-2.794-4.711-2.862-5.052-.32-1.595-.263-21.431-1.128-21.531,1.926.222,3.871.804,5.698,1.443Z"/>
          <path class="cls-3" d="M460.888,445.047c1.523,6.391,2.055,13.079,3.14,19.561.355,2.121.713,4.241,1.042,6.365.436,2.811.916,5.13.602,8.022-.029.268-.069.553-.242.76-.8.954-2.703-.017-3.288-.743-.646-.801-.908-1.841-1.073-2.856-.46-2.826-1.13-5.615-1.701-8.424-.865-4.257-1.679-8.525-2.54-12.783-.529-2.616-1.058-5.233-1.587-7.849-.064-.318-.126-.663.015-.956.287-.599,5.617-1.159,5.633-1.095Z"/>
          <path class="cls-3" d="M471.014,442.211c.915.95,1.531,4.44,1.822,5.309.794,2.38,1.639,4.742,2.51,7.095,1.709,4.62,3.522,9.2,5.27,13.805,1.166,3.071,2.696,6.035,2.656,9.405-.022,1.801-2.25.911-3.191.465-3.017-1.428-3.4-3.799-4.533-6.595-.877-2.162-1.774-4.316-2.679-6.467-2.805-6.668-5.649-13.31-8.848-19.802-.119-.242-.241-.49-.268-.759-.244-2.389,5.37-2.642,6.781-2.696.169-.006.329.081.482.239Z"/>
          <path class="cls-3" d="M478.982,434.821c1.627,1.365,5.061,9.13,5.662,10.239,1.724,3.186,3.444,6.375,5.163,9.565,1.388,2.576,4.108,5.953,4.429,8.92.097.73.772,4.757-1.019,3.941-.268-.122-.473-.349-.668-.57-4.724-5.354-8.395-11.299-12.451-17.141-1.19-1.713-2.321-3.469-3.582-5.132-1.086-1.432-2.945-2.766-3.802-4.299-.372-.666-.327-1.477-.271-2.238.02-.273.044-.559.188-.791.133-.214.353-.357.568-.489,1.638-1.003,3.434-1.749,5.3-2.202.132-.032.296.04.483.197Z"/>
          <path class="cls-3" d="M480.297,410.902c2.88,2.765,7.603,8.16,9.561,12.259,1.958,4.098,10.367,5.711,10.482,8.245.115,2.534.691,4.147-.461,4.262-1.152.115-5.529.346-8.178-2.073-2.649-2.419-4.608-3.801-6.335-6.22-1.728-2.419-3.225-5.299-4.032-9.1-.806-3.801-3.11-9.1-3.11-9.1l2.073,1.728Z"/>
          <path class="cls-3" d="M297.515,110.602c-.194,8.985-1.135,24.074.054,27.414,1.188,3.34,4.036-8.524,7.911-16.703,3.875-8.178,2.416-5.107,3.453-8.793,1.037-3.686,7.103-3.341,2.957-3.686-4.147-.346-14.374,1.767-14.374,1.767Z"/>
          <path class="cls-3" d="M345.931,377.003c-7.091,5.299-29.207,33.405-36.411,68.653,0,0,3.772,12.623,8.832,11.519,1.125-.246,17.379-52.008,30.337-76.025,3.715-6.885,3.974-10.54,3.974-10.54l-6.732,6.393Z"/>
          <path class="cls-3" d="M356.583,377.209c-8.806,29.316-38.107,140.609-37.581,157.926-8.807-25.201-1.584-58.344,9.244-90.194,9.055-26.635,28.337-67.732,28.337-67.732Z"/>
          <path class="cls-3" d="M361.191,383.486c-5.529,25.788-24.429,67.339-26.827,103.326-2.31,34.679,1.773,69.811,8.223,72.575,6.451,2.765,17.414-42.887,19.294-50.574,4.768-19.495,15.251-55.099,14.099-73.491-.994-15.877-3.668-24.197-5.805-31.562-2.871-9.895-8.985-20.274-8.985-20.274Z"/>
          <path class="cls-3" d="M373.516,472.528c-1.152,10.367-8.121,44.291-16.933,66.234-4.104,10.219-5.299,21.195-2.073,24.651,3.225,3.456,6.911-15.666,11.98-23.729,5.068-8.063,9.3-34.09,9.579-44.579.364-13.687,2.631-24.42,1.479-28.106s-4.032,5.529-4.032,5.529Z"/>
          <path class="cls-3" d="M331.803,494.76c-3.556,39.683,6.318,58.977,1.051,67.271-5.267,8.294-9.404,4.694-8.754.115,1.154-8.131-5.011-21.348,0-44.809,2.649-12.404,7.703-22.577,7.703-22.577Z"/>
          <path class="cls-3" d="M307.627,450.758c4.262,6.335,10.022,12.231,9.906,14.237-.115,2.005-5.99,32.415-5.644,35.871-3.571-3.456-6.911-44.924-6.681-48.726.23-3.801,2.419-1.382,2.419-1.382Z"/>
        </g>
      </g>
    </g>
  </g>
</svg>