<?xml version="1.0" encoding="utf-8"?>
<!-- Generator: Adobe Illustrator 24.0.0, SVG Export Plug-In . SVG Version: 6.00 Build 0)  -->
<svg version="1.1" id="Слой_1" xmlns="http://www.w3.org/2000/svg" xmlns:xlink="http://www.w3.org/1999/xlink" x="0px" y="0px"
	 viewBox="0 0 595.28 595.28" style="enable-background:new 0 0 595.28 595.28;" xml:space="preserve">
<style type="text/css">
	.st0{clip-path:url(#SVGID_2_);fill:#353F46;}
	.st1{clip-path:url(#SVGID_4_);fill-rule:evenodd;clip-rule:evenodd;fill:#D8F5FE;}
	.st2{clip-path:url(#SVGID_4_);fill:#353F46;}
	.st3{clip-path:url(#SVGID_6_);fill:#D8F5FE;}
	.st4{clip-path:url(#SVGID_8_);fill-rule:evenodd;clip-rule:evenodd;fill:#353F46;}
	.st5{clip-path:url(#SVGID_8_);fill:#D8F5FE;}
	.st6{clip-path:url(#SVGID_10_);}
	.st7{clip-path:url(#SVGID_12_);fill:#FFFFFF;}
	.st8{clip-path:url(#SVGID_14_);fill-rule:evenodd;clip-rule:evenodd;fill:#353F46;}
	.st9{clip-path:url(#SVGID_14_);fill:#FFFFFF;}
	.st10{clip-path:url(#SVGID_16_);fill:#353F46;}
	.st11{clip-path:url(#SVGID_18_);fill-rule:evenodd;clip-rule:evenodd;fill:#D8F5FE;}
	.st12{clip-path:url(#SVGID_18_);fill:#353F46;}
	.st13{clip-path:url(#SVGID_20_);fill:#D8F5FE;}
	.st14{clip-path:url(#SVGID_22_);fill-rule:evenodd;clip-rule:evenodd;fill:#353F46;}
	.st15{clip-path:url(#SVGID_22_);fill:#D8F5FE;}
	.st16{clip-path:url(#SVGID_24_);}
	.st17{clip-path:url(#SVGID_26_);fill:#FFFFFF;}
	.st18{clip-path:url(#SVGID_28_);fill-rule:evenodd;clip-rule:evenodd;fill:#353F46;}
	.st19{clip-path:url(#SVGID_28_);fill:#FFFFFF;}
</style>
<g>
	<g>
		<defs>
			<rect id="SVGID_5_" width="595.28" height="595.28"/>
		</defs>
		<clipPath id="SVGID_2_">
			<use xlink:href="#SVGID_5_"  style="overflow:visible;"/>
		</clipPath>
		<path style="clip-path:url(#SVGID_2_);fill:#D8F5FE;" d="M260.47,319.64v-70.53h56.87v13.33h-37.91v13.84h33.66v13.03h-33.66v17
			h40.71v13.33H260.47z M203.97,319.64v-56.99h-25.4v-13.53h69.75v13.53h-25.4v56.99H203.97z M104.57,249.2h-9.68v10.98v25.98
			c0,6.73,1.56,12.61,4.66,17.61c3.11,5,7.44,8.9,13,11.68c5.56,2.78,12.07,4.17,19.53,4.17c3.6,0,6.99-0.33,10.16-0.99
			c-3.35-0.69-6.45-1.75-9.3-3.18c-5.56-2.78-9.89-6.67-13-11.68c-3.11-5-4.66-10.88-4.66-17.61v-25.98
			C115.28,254.13,110.68,249.2,104.57,249.2z M155.48,249.2h9.68v10.98v25.43c0,6.74-1.55,12.61-4.66,17.61
			c-1.06,1.71-2.26,3.28-3.61,4.73c-2.98-2.29-5.46-5.02-7.44-8.21c-3.11-5-4.66-10.88-4.66-17.61v-22.6
			C145.11,253.78,149.59,249.2,155.48,249.2z M178.61,336.09c-18.09-1.74-40.63,0.05-56.6,7.84c-5.62,2.74-10.84,2.45-14.98,1.77
			c-7.8-1.29-12.84-1.84-25.59-2.27C103.83,329.92,146.38,324.01,178.61,336.09z M380.03,293.34h-22.86l0.4-0.98
			c1.94-4.75,3.87-9.24,5.77-13.48c1.9-4.24,3.67-7.92,5.29-11.04c1.54,3.12,3.26,6.8,5.16,11.04c1.9,4.24,3.85,8.74,5.83,13.48
			L380.03,293.34z M351.85,306.37h33.54l0.06,0.14c1.9,4.68,3.67,9.06,5.29,13.13h20.17c-1.86-4.48-4.03-9.55-6.5-15.21
			c-2.47-5.67-5.16-11.64-8.08-17.91c-2.92-6.28-5.97-12.6-9.17-18.98c-3.2-6.38-6.46-12.52-9.78-18.42h-18.23
			c-3.32,5.9-6.58,12.03-9.78,18.37c-3.2,6.34-6.28,12.67-9.24,18.98c-2.96,6.31-5.67,12.3-8.14,17.96
			c-2.47,5.66-4.6,10.74-6.38,15.21h20.9c1.62-4.07,3.38-8.45,5.29-13.13L351.85,306.37z M419.42,319.64
			c0.32-5.56,0.71-11.48,1.15-17.76c0.45-6.28,0.95-12.58,1.52-18.93c0.57-6.34,1.17-12.42,1.82-18.22
			c0.65-5.8,1.38-11.01,2.19-15.62h18.11c1.46,2.24,3.12,5,4.98,8.29c1.86,3.29,3.83,6.87,5.89,10.74c2.07,3.87,4.13,7.79,6.2,11.75
			c2.06,3.97,3.99,7.72,5.77,11.25c1.78-3.53,3.71-7.28,5.77-11.25c2.07-3.97,4.13-7.89,6.2-11.75c2.07-3.87,4.03-7.45,5.89-10.74
			c1.86-3.29,3.52-6.06,4.98-8.29h17.25c0.81,4.61,1.54,9.82,2.19,15.62c0.65,5.8,1.26,11.87,1.82,18.22
			c0.57,6.34,1.07,12.65,1.52,18.93c0.45,6.28,0.83,12.2,1.15,17.76h-18.47c-0.16-4.61-0.36-9.48-0.61-14.6
			c-0.24-5.12-0.53-10.41-0.85-15.88c-0.32-5.46-0.77-10.91-1.34-16.33c-1.13,2.31-2.39,4.78-3.77,7.43
			c-1.38,2.65-2.8,5.38-4.25,8.19c-1.46,2.82-2.88,5.58-4.25,8.29c-1.38,2.71-2.67,5.27-3.89,7.68c-1.22,2.41-2.27,4.49-3.16,6.26
			H460c-0.89-1.76-1.94-3.85-3.16-6.26c-1.22-2.41-2.51-4.97-3.89-7.68c-1.38-2.71-2.8-5.48-4.25-8.29
			c-1.46-2.82-2.88-5.55-4.25-8.19c-1.38-2.65-2.63-5.12-3.77-7.43c-0.49,5.43-0.91,10.87-1.28,16.33
			c-0.36,5.46-0.67,10.75-0.91,15.88c-0.24,5.12-0.45,9.99-0.61,14.6H419.42z"/>
	</g>
</g>
</svg>
