<?xml version="1.0" encoding="UTF-8"?>
<svg id="_Слой_2" data-name="Слой 2" xmlns="http://www.w3.org/2000/svg" viewBox="0 0 590.56 880.72">
  <g id="b">
    <g id="c">
      <polygon points="590.56 131.23 590.56 674.45 587.14 676.84 299.86 877.52 295.28 880.72 290.7 877.52 3.42 676.84 0 674.45 0 131.23 5.73 129.54 175.37 79.35 178.96 78.29 182.07 80.36 216.75 103.43 216.75 31.83 231.11 50.61 251.74 77.61 261.35 75.46 287.98 16.23 295.28 0 302.58 16.23 329.21 75.46 338.82 77.61 359.45 50.61 373.81 31.83 373.81 103.43 408.49 80.36 411.6 78.29 415.19 79.35 584.83 129.54 590.56 131.23" style="fill: #fff;"/>
      <path d="m61.65,274.44c-2.4,0-3.28,1.77-3.28,4.03v2.79h6.55v-2.79c0-2.26-1.15-4.03-3.27-4.03Z" style="fill: red;"/>
      <path d="m61.65,373.98c-2.4,0-3.28,1.77-3.28,4.03v2.78h6.55v-2.78c0-2.26-1.15-4.03-3.27-4.03Z" style="fill: red;"/>
      <path d="m412.92,87.02l-47.11,31.34v-62.89l-23.74,31.06-18.51-4.13-28.28-62.89-28.28,62.89-18.51,4.13-23.74-31.06v62.89l-47.11-31.34L8,137.21v533.07l287.28,200.68,287.28-200.68V137.21l-169.64-50.19h0Zm-68.92,10.41l5.93,8.49-5.93,8.23-5.94-8.23,5.94-8.49Zm-48.72-51.06l14.52,32.33-14.52-19.15-14.52,19.15s14.52-32.33,14.52-32.33Zm12.8,50.08l-12.8,17.7-12.8-17.7,12.8-17.75,12.8,17.75Zm-61.52.98l5.94,8.49-5.94,8.23-5.93-8.23,5.93-8.49ZM54.44,279.23c0-6.23,3.08-8.98,7.21-8.98,3.01,0,5.46,1.77,6.58,4.72l9.26-4.72v4.72l-8.64,3.96v2.33h8.64v4.19h-23.05v-6.22h0Zm0,11.45h3.93v9.96h5.63v-7.86h3.93v7.86h5.63v-9.96h3.93v14.15h-23.05v-14.15Zm0,19.39h3.93v5.76h19.12v4.19h-19.12v5.77h-3.93s0-15.72,0-15.72Zm0,20.43h3.93v5.24h15.19v-5.24h3.93v14.67h-3.93v-5.24h-15.19v5.24h-3.93v-14.67Zm0,31.96l10.15-4.72-10.15-4.71v-3.67h23.05v4.19h-14.14l8.64,4.19-8.64,4.19h14.14v4.2h-23.05s0-3.67,0-3.67Zm0,16.3c0-6.22,3.08-8.97,7.21-8.97,3.01,0,5.46,1.77,6.58,4.72l9.26-4.72v4.72l-8.64,3.96v2.32h8.64v4.2h-23.05v-6.23Zm0,11.46h3.93v5.24h15.19v-5.24h3.93v14.67h-3.93v-5.24h-15.19v5.24h-3.93v-14.67Zm0,19.91h3.93v9.96h5.63v-7.86h3.93v7.86h9.56v4.19h-23.05v-14.15Zm81.11,334.98l-77.28-53.57v-133.11l77.28,53.58v133.1Zm228.91,62.78l-69.18,47.96-69.39-48.11v-93.09l69.39,50.34,69.18-50.34v93.24Zm45.22-307.01v166.24l-114.51,83.06-114.5-83.06v-166.39c-7.61-5.7-14.82-11.98-21.59-18.83-17.51-17.7-31.22-38.27-40.76-61.14-9.88-23.69-14.82-48.8-14.67-74.62.33-59.29,28.05-114.38,74.05-150.16v-95.54l47.19,31.39v8.71c13.15-24.9,57.24-25.15,57.24-25.15l13.15,18.04,13.15-18.04s44.09.25,57.24,25.15v-8.71l47.19-31.39v95.52c18.38,14.32,34.1,31.92,46.29,51.98,18.36,30.2,27.96,64.9,27.76,100.33-.14,25.74-5.33,50.71-15.41,74.22-9.72,22.69-23.58,43.07-41.18,60.56-6.5,6.47-13.39,12.41-20.64,17.83Zm122.61,190.66l-77.28,53.57v-133.1l77.28-53.58v133.11Zm3.83-276.24c0,6.23-3.08,8.98-7.21,8.98-3.01,0-5.46-1.77-6.58-4.72l-9.26,4.72v-4.72l8.64-3.96v-2.33h-8.64v-4.19h23.05v6.22h0Zm0-11.46h-3.93v-9.95h-5.63v7.86h-3.93v-7.86h-5.63v9.95h-3.93v-14.14h23.05v14.14Zm0-19.38h-3.93v-5.76h-19.12v-4.19h19.12v-5.77h3.93v15.72Zm0-20.43h-3.93v-5.24h-15.19v5.24h-3.93v-14.67h3.93v5.24h15.19v-5.24h3.93v14.67Zm0-31.96l-10.15,4.72,10.15,4.71v3.67h-23.05v-4.19h14.14l-8.64-4.19,8.64-4.19h-14.14v-4.2h23.05v3.67Zm0-16.3c0,6.22-3.08,8.97-7.21,8.97-3.01,0-5.46-1.77-6.58-4.72l-9.26,4.72v-4.72l8.64-3.96v-2.32h-8.64v-4.2h23.05v6.23h0Zm0-11.46h-3.93v-5.24h-15.19v5.24h-3.93v-14.67h3.93v5.24h15.19v-5.24h3.93v14.67Zm0-19.91h-3.93v-9.96h-5.63v7.86h-3.93v-7.86h-9.56v-4.19h23.05v14.15Z" style="fill: red;"/>
      <path d="m528.91,420.09c2.4,0,3.28-1.77,3.28-4.03v-2.79h-6.55v2.79c0,2.26,1.15,4.03,3.27,4.03h0Z" style="fill: red;"/>
      <path d="m528.91,320.55c2.4,0,3.28-1.77,3.28-4.03v-2.78h-6.55v2.78c0,2.26,1.15,4.03,3.27,4.03h0Z" style="fill: red;"/>
      <path d="m383.11,193.99l-4.39,4.84-3.88,4.28c27.61,15.3,50.37,38.31,65.38,66.08h0c-3.99-1.49-14.18-3.79-37.08-1.98,0,0-19.91-31.79-43.4-50,0,0,7.32,32.85,6.13,53.62,0,0-48.51,5.96-64,13.28,0,0,47.83,19.23,63.83,30.81,0,0-6.89,46.3-15.28,68.85,0,0,31.36-22.3,51.11-47.66,0,0,24.68,21.62,36.09,35.23,0,0,1.4-26.51-13.91-64.68,0,0,15.01-12.78,18.42-33.88,11.52,22.63,17.95,48.25,17.8,75.33-.18,33.14-10.19,63.96-27.24,89.72h0c-20.85,9.1-50.94,19.23-50.94,19.23,0,0,9.59,3.49,29.68,6.73h0c-29.81,29.68-70.88,48.04-116.12,48.04h-.93c-44.95-.26-85.63-18.58-115.2-48.04,20.08-3.24,29.67-6.73,29.67-6.73,0,0-30.07-10.13-50.92-19.22-17.39-26.26-27.45-57.76-27.26-91.56.15-26.44,6.55-51.4,17.8-73.51,3.4,21.11,18.42,33.89,18.42,33.89-15.32,38.17-13.91,64.68-13.91,64.68,11.4-13.62,36.09-35.23,36.09-35.23,19.74,25.36,51.11,47.66,51.11,47.66-8.38-22.55-15.28-68.85-15.28-68.85,16-11.57,63.83-30.81,63.83-30.81-15.49-7.32-64-13.28-64-13.28-1.19-20.77,6.13-53.62,6.13-53.62-23.49,18.21-43.4,50-43.4,50-22.94-1.81-33.12.49-37.1,1.98h0c15.03-27.8,37.8-50.81,65.41-66.09l-3.89-4.28-4.37-4.82c-52.73,30.34-88.46,87.12-88.82,152.21-.55,97.4,78.25,177.08,175.64,177.62h1c48.47,0,92.49-19.65,124.46-51.43s51.89-75.69,52.16-124.22c.37-65.79-35.47-123.51-88.8-154.2h-.04Z" style="fill: red;"/>
      <polygon points="222.83 595.6 215.45 567.96 205.2 567.96 218.54 609.89 227.12 609.89 240.48 567.96 230.23 567.96 222.83 595.6" style="fill: red;"/>
      <polygon points="245.71 576.53 254.29 576.53 254.29 601.31 245.71 601.31 245.71 609.89 272.4 609.89 272.4 601.31 263.82 601.31 263.82 576.53 272.4 576.53 272.4 567.96 245.71 567.96 245.71 576.53" style="fill: red;"/>
      <path d="m295.29,602.27c-3.82,0-6.97-1.85-9.95-5.72l-5.3,6.67c1.01,1.67,6.43,7.63,15.25,7.63,9.41,0,15.24-6.56,15.24-13.94,0-9.53-6.55-12.22-14.29-14.6-3.46-1.07-4.29-2.32-4.29-3.93,0-1.31,1.49-2.8,4.29-2.8,3.45,0,5.95,1.85,7.15,3.1l5.12-7.03c-5.3-4.89-10.84-4.65-12.15-4.65-8.04,0-13.94,4.53-13.94,11.56,0,6.43,3.93,10.48,13.34,13.4,3.75,1.19,5.24,2.68,5.24,5.54,0,2.21-1.84,4.77-5.71,4.77h0Z" style="fill: red;"/>
      <polygon points="317.2 576.53 326.73 576.53 326.73 609.89 336.26 609.89 336.26 576.53 345.79 576.53 345.79 567.96 317.2 567.96 317.2 576.53" style="fill: red;"/>
      <path d="m363.43,567.96l-13.34,41.93h10.24l2.03-7.62h10.72l2.02,7.62h10.25l-13.34-41.93h-8.58Zm1.13,25.73l3.16-11.91,3.16,11.91h-6.32Z" style="fill: red;"/>
      <polygon points="277.26 669.68 295.28 691.63 313.3 669.68 295.28 648.1 277.26 669.68" style="fill: red;"/>
      <path d="m295.28,427.6c-18.39-5.79-54.12-37.96-54.12-37.96,3.07,29.44,14.51,54.38,14.51,54.38-9.95,3.45-42.51,13.15-42.51,13.15,29.24,17.36,58.43,17.83,58.43,17.83,13.62,20.68,23.69,26.13,23.69,26.13,0,0,10.07-5.45,23.69-26.13,0,0,29.19-.47,58.43-17.83,0,0-32.56-9.7-42.51-13.15,0,0,11.44-24.94,14.51-54.38,0,0-35.73,32.17-54.12,37.96Z" style="fill: red;"/>
      <path d="m229.7,196.2l65.58,72.34,65.58-72.34.05-.06,6.7-7.39-3.12-4.06-.09-.12-11.5-14.98-11.63-15.14-45.99-12-45.99,12-11.63,15.15-11.53,15.01-.09.12-3.09,4.02,6.7,7.39.05.06h0Zm46.63-8.6h37.9l-18.95,54.02-18.95-54.02h0Zm33.64,47.57l16.6-47.49,22.38,4.47-38.98,43.02Zm24.44-60.23l3.77-5.79,6.22,8.37,1.7,2.29-13.28-2.43,1.59-2.44Zm-5.8-12.19l-6,9-12.64-13.53,18.64,4.53Zm-43.71,8.05l10.13-10.31.25-.25.25.25,10.12,10.3.08.09,5.24,5.32h-31.38l5.23-5.31.08-.09h0Zm-4.31-12.58l-12.64,13.53-6-9,18.64-4.53h0Zm-34.51,19.33l6.3-8.48,3.82,5.87,1.54,2.36-13.28,2.43,1.62-2.18h0Zm17.91,10.05l16.6,47.49-38.98-43.02,22.38-4.47Z" style="fill: red;"/>
      <path d="m279.46,788.73v-3.69h-13.6v21.66h4.03v-8.98h7.56v-3.7h-7.56v-5.29h9.57Z" style="fill: red;"/>
      <path d="m291.84,785.04h-5.01v21.66h5.01c7.59,0,11.37-5.11,11.37-10.83s-3.59-10.83-11.37-10.83h0Zm.73,17.97h-1.71v-14.28h1.71c3.96,0,6.61,3.51,6.61,7.14s-2.65,7.14-6.61,7.14Z" style="fill: red;"/>
      <path d="m317.51,803.26c-3.18,0-5.42-3.3-5.42-7.39s2.24-7.39,5.42-7.39c1.83,0,3.05,1.05,4,2.71l3.18-2.15c-1.54-2.68-4.06-4.25-7.15-4.25-5.7,0-9.48,4.95-9.48,11.08s3.78,11.08,9.48,11.08c3.09,0,5.61-1.57,7.15-4.25l-3.18-2.15c-.95,1.66-2.17,2.71-4,2.71Z" style="fill: red;"/>
    </g>
  </g>
</svg>