<?xml version="1.0" encoding="utf-8"?>
<!-- Generator: Adobe Illustrator 24.0.0, SVG Export Plug-In . SVG Version: 6.00 Build 0)  -->
<svg version="1.1" id="Слой_1" xmlns="http://www.w3.org/2000/svg" xmlns:xlink="http://www.w3.org/1999/xlink" x="0px" y="0px"
	 viewBox="0 0 595.28 595.28" style="enable-background:new 0 0 595.28 595.28;" xml:space="preserve">
<style type="text/css">
	.st0{clip-path:url(#SVGID_2_);fill:#353F46;}
	.st1{clip-path:url(#SVGID_4_);fill-rule:evenodd;clip-rule:evenodd;fill:#D8F5FE;}
	.st2{clip-path:url(#SVGID_4_);fill:#353F46;}
	.st3{clip-path:url(#SVGID_6_);fill:#D8F5FE;}
	.st4{clip-path:url(#SVGID_8_);fill-rule:evenodd;clip-rule:evenodd;fill:#353F46;}
	.st5{clip-path:url(#SVGID_8_);fill:#D8F5FE;}
	.st6{clip-path:url(#SVGID_10_);}
	.st7{clip-path:url(#SVGID_12_);fill:#FFFFFF;}
	.st8{clip-path:url(#SVGID_14_);fill-rule:evenodd;clip-rule:evenodd;fill:#353F46;}
	.st9{clip-path:url(#SVGID_14_);fill:#FFFFFF;}
	.st10{clip-path:url(#SVGID_16_);fill:#353F46;}
	.st11{clip-path:url(#SVGID_18_);fill-rule:evenodd;clip-rule:evenodd;fill:#D8F5FE;}
	.st12{clip-path:url(#SVGID_18_);fill:#353F46;}
	.st13{clip-path:url(#SVGID_20_);fill:#D8F5FE;}
	.st14{clip-path:url(#SVGID_22_);fill-rule:evenodd;clip-rule:evenodd;fill:#353F46;}
	.st15{clip-path:url(#SVGID_22_);fill:#D8F5FE;}
	.st16{clip-path:url(#SVGID_24_);}
	.st17{clip-path:url(#SVGID_26_);fill:#FFFFFF;}
	.st18{clip-path:url(#SVGID_28_);fill-rule:evenodd;clip-rule:evenodd;fill:#353F46;}
	.st19{clip-path:url(#SVGID_28_);fill:#FFFFFF;}
</style>
<g>
	<g>
		<defs>
			<rect id="SVGID_25_" width="595.28" height="595.28"/>
		</defs>
		<clipPath id="SVGID_2_">
			<use xlink:href="#SVGID_25_"  style="overflow:visible;"/>
		</clipPath>
		<path style="clip-path:url(#SVGID_2_);fill:#FFFFFF;" d="M391.88,118.14h35.84v134.8c0,24.93-5.76,46.69-17.26,65.21
			c-3.92,6.32-8.38,12.16-13.36,17.52c-11.03-8.47-20.21-18.6-27.54-30.41c-11.51-18.52-17.25-40.27-17.25-65.21v-83.66
			C353.47,135.12,370.06,118.14,391.88,118.14 M477.52,439.84c-66.96-6.44-150.43,0.2-209.56,29.03
			c-20.81,10.15-40.14,9.09-55.47,6.55c-28.88-4.77-47.52-6.82-94.73-8.4C200.66,417.01,358.2,395.14,477.52,439.84z M203.39,118.14
			h-35.84v136.84c0,24.93,5.76,46.69,17.26,65.21c11.5,18.52,27.55,32.94,48.14,43.23c20.59,10.3,44.68,15.44,72.29,15.44
			c13.33,0,25.87-1.22,37.63-3.66c-12.4-2.57-23.89-6.5-34.45-11.78c-20.59-10.29-36.63-24.71-48.14-43.23
			c-11.5-18.53-17.25-40.27-17.25-65.21v-96.2C243.03,136.41,226.01,118.14,203.39,118.14z"/>
	</g>
</g>
</svg>
