<?xml version="1.0" encoding="UTF-8"?>
<svg id="_Слой_1" data-name="Слой_1" xmlns="http://www.w3.org/2000/svg" viewBox="0 0 413.971 824.09">
  <defs>
    <style>
      .cls-1 {
        fill: #3f3f3f;
      }

      .cls-2 {
        fill: #707070;
      }

      .cls-3 {
        fill: #bebdbe;
      }
    </style>
  </defs>
  <g id="_Слой_1-2" data-name="_Слой_1">
    <g id="Anterior_Body">
      <path class="cls-3" d="M412.954,422.489c-1.159-1.217-7.362-5.217-8.869-6.783-1.507-1.565-1.507-2.783-5.681-9.971-4.174-7.188-19.739-13.565-21.478-13.913-1.739-.348-5.13-4.609-6-6.957-3.586-9.681-12-42.782-15.652-72.348-3.652-29.565-17.391-46.261-24.87-56.522.348-28.348-6.154-34.253-9.739-43.304.348-7.13,2.824-22.625,1.151-42.995-1.325-16.135-21.499-35.381-34.02-37.12-8.109-1.126-12.58.812-23.072,0-10.493-.812-30.145-18.435-31.188-20.522-1.043-2.087-3.246-19.478-1.623-21.681,1.623-2.203,1.855-.116,3.478-4.638s.748-12.652.748-12.652c0,0,.431-1.734.73-.537.174.696.522,1.42,1.304,1.826,1.215.63,2.726-2.299,4.319-5.072,4.236-7.376,8.204-21.448,2.348-23.217-1.066-.322-2.609,2.435-2.609,2.435,0-1.391,1.391-14.261-.696-22.261-1.672-6.408-7.929-12.814-12.87-16.696-6.035-4.741-18.342-5.076-21.407-5.099v-.002h-.544v.002c-3.065.024-15.372.358-21.407,5.099-4.94,3.881-11.198,10.288-12.869,16.696-2.087,8-.696,20.869-.696,22.261,0,0-1.543-2.757-2.609-2.435-5.856,1.769-1.888,15.842,2.348,23.217,1.593,2.773,3.104,5.702,4.319,5.072.783-.406,1.13-1.13,1.304-1.826.299-1.198.73.537.73.537,0,0-.875,8.13.748,12.652s1.855,2.435,3.478,4.638-.58,19.594-1.623,21.681-20.695,19.71-31.188,20.522-14.963-1.126-23.072,0c-12.522,1.739-32.696,20.985-34.021,37.12-1.673,20.37.803,35.865,1.151,42.995-3.586,9.052-10.087,14.956-9.739,43.304-7.478,10.261-21.217,26.956-24.869,56.522-3.652,29.565-12.066,62.666-15.652,72.348-.87,2.348-4.261,6.609-6,6.957s-17.304,6.725-21.478,13.913-4.174,8.406-5.681,9.971-7.71,5.565-8.869,6.783c-1.159,1.217-1.971,5.797,1.275,6.551s11.928-1.13,14.754-7.478c3.391-2.217,4.217-2.261,4.217-2.261,0,0,1.145,3.478.971,6.261-.174,2.783-5.884,11.304-8.145,16.348-2.261,5.044-9.043,14.348-7.217,16.957s4.435,2.174,5.565,1.304c1.131-.87,7.565-11.782,8.826-13.696,1.435-1.87,6.826-8.826,7.783-9.87-1.536,6.348-4.029,13.826-5.015,16.783-.985,2.957-5.581,11.857-5.623,14.899-.058,4.232,2.863,5.169,4.812,3.884,5.449-3.594,8.509-12.803,9.855-15.478,2.279-4.529,4.754-12.58,7.072-16.29-.58,4.522-1.995,10.753-2.754,16.029-.384,2.668-2.723,16.404.261,17.304,4.609,1.391,5.217-3.913,7.043-10.174,1.826-6.261,4.087-21.739,5.478-24.087,2.087.435,1.773,1.909,2.174,6.087.526,5.487.087,19.13,4.087,19.13s4.29-13.739,4.812-22.087,3.246-12.754,4.638-19.594c1.391-6.841,4.632-16.343,4.406-24.348-.105-3.717-1.681-7.014,1.507-18.898,1.956-7.292,26.551-55.42,29.316-59.942,2.996-4.897,8.597-19.478,9.988-30.609,1.391-11.13,1.159-11.594,1.855-16.928.696-5.333,2.853-7.684,5.565-10.898,3.13-3.71,7.652-14.725,11.13-29.739,1.623-.058,2.12-1.399,2.898-.87,0,0,2.087,23.768,6.377,30.377s3.014,9.043,3.942,11.478c.928,2.435.464,18.319-.232,27.13-.696,8.812-2.725,39.536-4.638,46.84s-4.29,10.435-6.145,19.71c-1.855,9.275-4.812,21.416-5.449,32.812,0,0-3.897,27.041-3.536,37.217.387,10.903-2.435,85.043,13.217,103.13-.754,3.536-.058,9.681.058,11.536s-4.406,21.101-2.667,33.971,1.043,8.406.696,11.623c-.348,3.217-14.261,46.348,6.609,125.768,1.247,4.746,1.739,14.319,1.739,19.362s-1.739,14.956-1.739,19.652-.174,6.956.869,9.913c1.044,2.956.87,7.826.174,11.478-.696,3.652-14.783,13.565-16,18.956s-2.782,8.522-.522,10.087c2.261,1.565,3.304,0,3.304,0,0,0-.869,2.609.522,4s5.565,1.217,5.565,1.217c0,0,1.391.348,2.261,1.739s4.522,2.087,5.391,1.217,1.391-.798,2.087.383c.376.639,1.922,1.39,3.263,1.946,1.289.534,2.752.418,3.94-.313l2.71-1.668s2.261,2.609,2.783,2.783,5.913,2.087,7.304,0,8-7.13,7.652-13.043c-.348-5.913-.869-9.217-.696-11.304.174-2.087.696-5.217,1.565-8.348.87-3.13,1.913-4.522,1.217-10.435-.696-5.913-.174-6.261-.174-7.304s.869-3.826,1.043-6.956-2.261-9.565-2.261-9.565c0,0-1.044-6.261-1.565-14.783-.522-8.522,1.217-42.087,4.696-53.217,3.478-11.13,5.519-14.615,5.913-17.391,4.174-29.391-2.605-61.037-3.826-72.232-.696-6.377,2.087-7.072,3.826-13.507,1.739-6.435,3.13-22.435,1.217-29.565-1.404-5.231,4.869-24.348,5.739-30.261.87-5.913,12.812-51.652,13.449-59.826.638-8.174,1.449-33.526-.696-37.353,1.021,0,3.948,2.031,5.195,2.385.054.046.145.055.253.047.108.008.199,0,.253-.047,1.247-.354,4.174-2.385,5.195-2.385-2.145,3.826-1.333,29.179-.696,37.353.638,8.174,12.58,53.913,13.449,59.826.87,5.913,7.143,25.029,5.739,30.261-1.913,7.13-.522,23.13,1.217,29.565s4.522,7.13,3.826,13.507c-1.221,11.194-8,42.84-3.826,72.232.394,2.776,2.435,6.261,5.913,17.391s5.217,44.696,4.696,53.217c-.522,8.522-1.565,14.783-1.565,14.783,0,0-2.435,6.435-2.261,9.565s1.044,5.913,1.044,6.956.522,1.391-.174,7.304.348,7.304,1.217,10.435c.87,3.13,1.391,6.261,1.565,8.348.174,2.087-.348,5.391-.696,11.304-.348,5.913,6.261,10.956,7.652,13.043,1.391,2.087,6.783.174,7.304,0,.522-.174,2.783-2.783,2.783-2.783l2.71,1.668c1.188.731,2.652.847,3.94.313,1.341-.555,2.887-1.306,3.263-1.946.696-1.182,1.217-1.253,2.087-.383.87.869,4.522.174,5.391-1.217.87-1.391,2.261-1.739,2.261-1.739,0,0,4.174.174,5.565-1.217s.522-4,.522-4c0,0,1.043,1.565,3.304,0s.696-4.696-.522-10.087c-1.217-5.391-15.304-15.304-16-18.956s-.87-8.522.174-11.478c1.043-2.957.87-5.217.87-9.913s-1.739-14.609-1.739-19.652.492-14.616,1.739-19.362c20.869-79.42,6.956-122.55,6.609-125.768-.348-3.217-1.044,1.246.696-11.623,1.739-12.87-2.783-32.116-2.667-33.971s.812-8,.058-11.536c15.652-18.087,12.831-92.228,13.217-103.13.361-10.176-3.536-37.217-3.536-37.217-.637-11.395-3.594-23.536-5.449-32.812-1.855-9.275-4.232-12.406-6.145-19.71s-3.942-38.029-4.638-46.84c-.696-8.812-1.159-24.696-.232-27.13.927-2.435-.348-4.87,3.942-11.478,4.29-6.609,6.377-30.377,6.377-30.377.779-.529,1.275.812,2.898.87,3.478,15.015,8,26.029,11.13,29.739,2.713,3.215,4.87,5.565,5.565,10.898.696,5.333.464,5.797,1.855,16.928,1.391,11.13,6.992,25.711,9.988,30.609,2.766,4.522,27.36,52.65,29.316,59.942,3.188,11.884,1.612,15.182,1.507,18.898-.226,8.004,3.015,17.507,4.406,24.348s4.116,11.246,4.638,19.594.812,22.087,4.812,22.087,3.561-13.644,4.087-19.13c.401-4.178.087-5.652,2.174-6.087,1.391,2.348,3.652,17.826,5.478,24.087,1.826,6.261,2.435,11.565,7.044,10.174,2.984-.901.645-14.636.261-17.304-.759-5.275-2.174-11.507-2.754-16.029,2.319,3.71,4.793,11.761,7.073,16.29,1.346,2.675,4.406,11.884,9.855,15.478,1.948,1.285,4.87.348,4.812-3.884-.042-3.041-4.638-11.942-5.623-14.899-.986-2.956-3.478-10.435-5.015-16.783.957,1.044,6.348,8,7.783,9.87,1.261,1.913,7.696,12.826,8.826,13.696,1.13.87,3.739,1.304,5.565-1.304,1.826-2.609-4.957-11.913-7.217-16.957-2.261-5.043-7.971-13.565-8.145-16.348-.174-2.783.971-6.261.971-6.261,0,0,.826.043,4.217,2.261,2.826,6.348,11.507,8.232,14.754,7.478,3.246-.754,2.435-5.333,1.275-6.551h.003Z"/>
      <path class="cls-2" d="M230.026,4.462c-7.409-2.663-14.377-5.072-23.109-4.323-.047.004-.09.063-.132.114-.043-.051-.085-.11-.132-.114-8.732-.75-15.7,1.66-23.109,4.323-11.508,4.136-14.944,19.574-14.705,30.713,0,4.599,1.194,9.169,2.209,13.622,1.04,4.563,3.065,4.535,3.853,4.796,12.087,4,12.849,19.784,18.174,20,3.798.154,8.116-.025,11.954-.01.128.033.253.074.394.068.439-.021.9-.033,1.362-.044.462.011.923.023,1.362.044.141.007.266-.035.394-.068,3.838-.014,8.157.164,11.954.01,5.325-.216,6.087-16,18.174-20,.788-.261,2.813-.233,3.853-4.796,1.015-4.453,2.209-9.023,2.209-13.622.239-11.138-3.197-26.577-14.705-30.713h0Z"/>
      <g>
        <path id="_Левое_плечо" data-name="Левое_плечо" class="cls-1" d="M137.468,145.121c-2.314-1.484-5.519-3.253-5.992-3.414-3.499-1.196-7.343-1.411-10.978-.791-5.958,1.015-12.054,5.984-16.504,9.892-2.883,2.533-5.59,7.041-7.003,10.61-2.185,5.518-1.35,10.159-1.339,15.949.013,6.847.027,13.694.04,20.541,0,.053,7.168-2.876,7.836-3.25,3.727-2.084,7.016-4.805,10.163-7.672,2.754-2.508,6.456-5.927,6.456-9.974,0-6.099,1.432-12.257,4.734-17.435,3.713-5.824,9.841-8.162,14.975-12.443.244-.204-.883-1.048-2.387-2.012h0Z"/>
        <path id="_Левая_лопатка" data-name="Левая_лопатка" class="cls-1" d="M130.181,159.619c7.328-4.045,14.941-7.604,22.742-10.637.836-.325,1.71-.649,2.603-.567,4.097.376,5.892,13.106,6.631,16.049,2.362,9.412,4.67,18.832,7.613,28.085,3.585,11.27-13.071,1.742-16.348,0-5.333-2.836-10.468-4.953-14.887-9.297-5.305-5.215-7.939-12.12-10.962-18.753-1.02-2.238-1.452-2.573.79-3.857.603-.345,1.209-.686,1.817-1.022h0ZM129.902,178.567c.173.365.326.663.456.856,2.219,3.272,5.07,6.089,8.189,8.502,5.628,4.355,12.478,8.799,19.571,9.956,4.087.667,5.522,1.145,6.609,1.754s-.956,2.435-.956,2.652-6.29,3.594-13.015,4.406c-9.996,1.206-20.162-3.186-24.729-12.417-1.728-3.492-2.594-7.366-2.79-11.245-.163-3.209-.818-6.83,1.364-9.56,2.152-2.692,4.159,2.678,5.302,5.096h0Z"/>
        <path id="_Левая_спина" data-name="Левая_спина" class="cls-1" d="M173.48,199.969c3.71,6.857,11.594,25.871,14.377,31.205s6.956,7.42,6.029,12.985c-.928,5.565-8.398,25.839-11.594,32.563-3.196,6.725-7.884,20.406-10.435,26.567-2.721,6.573-5.101,13.681-6.261,17.159-.939,2.816-9.936-10.028-13.326-15.017-.844-1.242-1.419-2.638-1.691-4.115-.926-5.038-3.255-17.88-5.158-29.795-1.102-6.904-3.246-9.739-5.101-25.043-1.855-15.304-.928-12.754-5.565-20.638-4.638-7.884-5.797-18.087-4.87-18.319,6.261,4.638,12.927,4.531,17.519,5.333,1.245.218,5.143.775,9.843-.803,7.797-2.618,8.995-3.943,10.618-6.958,1.623-3.014,5.614-5.125,5.614-5.125h0Z"/>
        <path id="_Левая_икра" data-name="Левая_икра" class="cls-1" d="M146.118,585.938c-18.783,21.913-14.089,75.594-10.959,89.855s3.538,16.763,10.106,16.672c2.576-.036,8.389-3.687,7.345-15.513-1.043-11.826.232-44.606.232-57.739,0-7.652,2.087-44.938,2.087-44.938l-8.812,11.662h0ZM158.332,601.359c2.599,27.13.541,60.965,0,71.188-.515,9.739-1.005,18.993,3.633,19.921,4.638.928,15.806-13.834,17.893-27.399,1.659-10.781-1.246-33.792-3.13-44-2.67-14.462-6.001-19.71-9.609-27.13s-7.029-15.768-7.637-19.246c-.609-3.478-1.149,26.667-1.149,26.667h0Z"/>
        <path id="_Левый_ахил" data-name="Левый_ахил" class="cls-1" d="M147.63,771.735c2.551,11.362,1.95,16.491,6.841,17.507,8.927,1.855,10.667-5.333,11.13-10.899.464-5.565,3.015-7.884,3.015-7.884,0,0-.086,20.64-1.159,25.739-.928,4.406-.882,7.065-5.639,7.065-6.689,0-11.468,1.109-14.767.007-3.733-1.247-2.268-16.77-2.783-24-.594-8.348-.984-10.027-.52-12.114.464-2.087,3.883,4.578,3.883,4.578h0Z"/>
        <path id="_Левый_ахил__x28_верх_x29_" data-name="Левый_ахил__x28_верх_x29_" class="cls-1" d="M146.306,699.333c3.152.079,5.772,2.478,6.162,5.607,2.243,17.996,4.037,62.548,3.621,65.461-.464,3.246-2.038,18.523-3.478,11.538-4.232-20.523-6.751-50.291-9.275-62.61-2.435-11.884-6.725-14.782-2.087-18.492,2.366-1.893,1.947-1.582,5.057-1.503h0ZM160.021,701.764c-3.871,4.406.248,81.989.938,82.038.696.049,2.551-24.995,6.029-39.371,3.478-14.376,3.609-37.97,3.594-38.029-1.401-5.559-7.652-6.629-10.561-4.638h0Z"/>
        <path id="_Левый_хамстринг" data-name="Левый_хамстринг" class="cls-1" d="M141.55,557.069c-2.407,11.809-3.78,32.696-4.939,33.623,9.971-10.667,21.05-49.935,23.652-63.072,2.57-12.973,2.609-55.681,3.768-62.637,1.159-6.957-.091-6.444-1.169-10.174-1.566-5.422-7.941-14.228-11.22-17.507-12.522-12.522-2.742,83.706-10.092,119.768h0ZM168.867,463.426c-2.194,9.469-10.941,111.725-2.194,123.092,3.71-6.261,6.431-60.985,14.901-83.014,4.397-11.437-.348-26.319-2.413-34.203-.67-2.558-7.304-13.333-7.304-13.333l-2.99,7.459h0Z"/>
        <path id="_Левый_трицепс" data-name="Левый_трицепс" class="cls-1" d="M118.988,186.983c-23.529,16.696-23.188,27.362-21.101,41.044,1.899,12.452,7.513-1.015,11.278-3.787,2.741-2.018,5.519-3.951,8.215-6.033.884-.683,6.115-3.894,5.935-5.252-.153-1.159-4.327-25.971-4.327-25.971h0ZM122.465,217.94c-4.727,3.957-9.376,8.043-13.78,12.359-4.417,4.329-5.341,7.454-5.418,13.765-.112,9.102-2.838,17.876-4.197,26.816-.69,4.539-1.052,9.165-.461,13.737.696,5.385,1.734,2.783,4.136.164,1.215-1.324,2.411-2.669,3.528-4.078,3.445-4.345,3.5-8.108,4.194-13.547.76-5.959,5.327-8.132,8-13.565,1.67-3.395,2.589-10.714,4.259-14.109,3.471-7.055,4.411-15.118,2.002-22.587,0,0-2.261,1.044-2.262,1.044h-.001ZM92.031,224.896c-3.015,8.33-8.522,35.826-5.97,47.656.598,2.77,2.768,8.757,4.722,3.119,3.071-8.861,6.942-17.766,9.113-26.902,1.429-6.015-4.212-16.394-7.865-23.872h0Z"/>
        <path id="_Левый_локоть" data-name="Левый_локоть" class="cls-1" d="M81.819,280.184c.279,3.064.799,6.101.856,9.216.11,5.972-1.907,18.422,3.761,22.676,5.021-4.754,7.043-13.133,6.656-19.817-.222-3.833-3.835-6.377-6.195-9.149-1.787-2.099-3.538-4.231-5.253-6.389,0,1.161.071,2.314.175,3.462h0Z"/>
        <path id="_Верх_спины" data-name="Верх_спины" class="cls-1" d="M153.423,135.157c6.261,6.609,13.348,32.585,17.391,46.261,4.659,15.76,8.02,25.471,20.174,45.217,8.172,13.277,7.652,21.913,9.391,20.522,2.435-26.783,8-99.826-1.391-107.478-9.391-7.652-12.522-6.261-22.956-7.652-10.435-1.391-22.609,3.13-22.609,3.13h0ZM260.147,135.157c-6.261,6.609-13.348,32.585-17.391,46.261-4.659,15.76-8.02,25.471-20.174,45.217-8.172,13.277-7.652,21.913-9.391,20.522-2.435-26.783-8-99.826,1.391-107.478,9.391-7.652,12.522-6.261,22.956-7.652,10.435-1.391,22.609,3.13,22.609,3.13h0Z"/>
        <path id="_Правое_плечо" data-name="Правое_плечо" class="cls-1" d="M276.101,145.121c2.314-1.484,5.519-3.253,5.992-3.414,3.499-1.196,7.343-1.411,10.978-.791,5.958,1.015,12.054,5.984,16.504,9.892,2.883,2.533,5.59,7.041,7.003,10.61,2.184,5.518,1.35,10.159,1.339,15.949-.013,6.847-.027,13.694-.04,20.541,0,.053-7.168-2.876-7.836-3.25-3.727-2.084-7.016-4.805-10.163-7.672-2.754-2.508-6.456-5.927-6.456-9.974,0-6.099-1.432-12.257-4.734-17.435-3.713-5.824-9.841-8.162-14.975-12.443-.244-.204.883-1.048,2.387-2.012h.001Z"/>
        <path id="_Правая_лопатка" data-name="Правая_лопатка" class="cls-1" d="M283.389,159.619c-7.328-4.045-14.941-7.604-22.742-10.637-.836-.325-1.71-.649-2.603-.567-4.097.376-5.893,13.106-6.631,16.049-2.362,9.412-4.67,18.832-7.613,28.085-3.585,11.27,13.071,1.742,16.348,0,5.333-2.836,10.468-4.953,14.887-9.297,5.305-5.215,7.939-12.12,10.962-18.753,1.02-2.238,1.452-2.573-.79-3.857-.603-.345-1.209-.686-1.817-1.022h0ZM283.668,178.567c-.173.365-.326.663-.456.856-2.219,3.272-5.07,6.089-8.189,8.502-5.628,4.355-12.478,8.799-19.571,9.956-4.087.667-5.522,1.145-6.609,1.754s.956,2.435.956,2.652,6.29,3.594,13.015,4.406c9.996,1.206,20.162-3.186,24.729-12.417,1.728-3.492,2.594-7.366,2.79-11.245.163-3.209.818-6.83-1.364-9.56-2.152-2.692-4.159,2.678-5.302,5.096h.001Z"/>
        <path id="_Правая_спина" data-name="Правая_спина" class="cls-1" d="M240.089,199.969c-3.71,6.857-11.594,25.871-14.377,31.205s-6.956,7.42-6.029,12.985c.928,5.565,8.398,25.839,11.594,32.563,3.196,6.725,7.884,20.406,10.435,26.567,2.721,6.573,5.101,13.681,6.261,17.159.939,2.816,9.936-10.028,13.326-15.017.844-1.242,1.419-2.638,1.691-4.115.926-5.038,3.255-17.88,5.158-29.795,1.102-6.904,3.246-9.739,5.101-25.043,1.855-15.304.928-12.754,5.565-20.638,4.638-7.884,5.797-18.087,4.87-18.319-6.261,4.638-12.927,4.531-17.519,5.333-1.245.218-5.143.775-9.843-.803-7.797-2.618-8.995-3.943-10.618-6.958-1.623-3.014-5.614-5.125-5.614-5.125h0Z"/>
        <path id="_Правая_икра" data-name="Правая_икра" class="cls-1" d="M267.451,585.938c18.783,21.913,14.089,75.594,10.959,89.855-3.13,14.261-3.538,16.763-10.106,16.672-2.576-.036-8.389-3.687-7.345-15.513,1.043-11.826-.232-44.606-.232-57.739,0-7.652-2.087-44.938-2.087-44.938l8.812,11.662h-.001ZM255.238,601.359c-2.599,27.13-.541,60.965,0,71.188.515,9.739,1.005,18.993-3.633,19.921-4.638.928-15.806-13.834-17.893-27.399-1.659-10.781,1.246-33.792,3.13-44,2.67-14.462,6.001-19.71,9.609-27.13s7.029-15.768,7.637-19.246c.609-3.478,1.149,26.667,1.149,26.667h.001Z"/>
        <path id="_Правый_ахил" data-name="Правый_ахил" class="cls-1" d="M265.939,771.735c-2.551,11.362-1.95,16.491-6.841,17.507-8.927,1.855-10.667-5.333-11.13-10.899-.464-5.565-3.015-7.884-3.015-7.884,0,0,.086,20.64,1.159,25.739.928,4.406.882,7.065,5.639,7.065,6.689,0,11.468,1.109,14.767.007,3.733-1.247,2.268-16.77,2.783-24,.594-8.348.984-10.027.52-12.114-.464-2.087-3.883,4.578-3.883,4.578h.001Z"/>
        <path id="_Правый_ахил__x28_верх_x29_" data-name="Правый_ахил__x28_верх_x29_" class="cls-1" d="M267.264,699.333c-3.152.079-5.772,2.478-6.162,5.607-2.243,17.996-4.037,62.548-3.621,65.461.464,3.246,2.038,18.523,3.478,11.538,4.232-20.523,6.751-50.291,9.275-62.61,2.435-11.884,6.725-14.782,2.087-18.492-2.366-1.893-1.947-1.582-5.057-1.503h0ZM253.549,701.764c3.871,4.406-.248,81.989-.938,82.038-.696.049-2.551-24.995-6.029-39.371-3.478-14.377-3.609-37.97-3.594-38.029,1.401-5.559,7.652-6.629,10.561-4.638h0Z"/>
        <path id="_Правый_хамстринг" data-name="Правый_хамстринг" class="cls-1" d="M272.019,557.069c2.407,11.809,3.78,32.696,4.939,33.623-9.971-10.667-21.05-49.935-23.652-63.072-2.57-12.973-2.609-55.681-3.768-62.637-1.159-6.957.091-6.444,1.169-10.174,1.566-5.422,7.941-14.228,11.22-17.507,12.522-12.522,2.742,83.706,10.092,119.768h0ZM244.702,463.426c2.194,9.469,10.941,111.725,2.194,123.092-3.71-6.261-6.431-60.985-14.901-83.014-4.397-11.437.348-26.319,2.413-34.203.67-2.558,7.304-13.333,7.304-13.333l2.99,7.459h0Z"/>
        <path id="_Правый_трицепс" data-name="Правый_трицепс" class="cls-1" d="M294.582,186.983c23.529,16.696,23.188,27.362,21.101,41.044-1.899,12.452-7.513-1.015-11.278-3.787-2.741-2.018-5.519-3.951-8.215-6.033-.884-.683-6.115-3.894-5.935-5.252.153-1.159,4.327-25.971,4.327-25.971h0ZM291.104,217.94c4.727,3.957,9.376,8.043,13.78,12.359,4.417,4.329,5.341,7.454,5.418,13.765.111,9.102,2.838,17.876,4.197,26.816.69,4.539,1.052,9.165.461,13.737-.696,5.385-1.734,2.783-4.136.164-1.215-1.324-2.411-2.669-3.528-4.078-3.445-4.345-3.5-8.108-4.194-13.547-.76-5.959-5.327-8.132-8-13.565-1.67-3.395-2.589-10.714-4.259-14.109-3.471-7.055-4.411-15.118-2.002-22.587,0,0,2.261,1.044,2.262,1.044h.001ZM321.538,224.896c3.014,8.33,8.522,35.826,5.97,47.656-.598,2.77-2.768,8.757-4.722,3.119-3.071-8.861-6.942-17.766-9.113-26.902-1.429-6.015,4.212-16.394,7.865-23.872h0Z"/>
        <path id="_Правй_локоть" data-name="Правй_локоть" class="cls-1" d="M331.751,280.184c-.279,3.064-.799,6.101-.856,9.216-.11,5.972,1.907,18.422-3.76,22.676-5.021-4.754-7.043-13.133-6.656-19.817.222-3.833,3.835-6.377,6.195-9.149,1.787-2.099,3.538-4.231,5.253-6.389,0,1.161-.071,2.314-.175,3.462h-.001Z"/>
        <path id="_Левая_ягодица" data-name="Левая_ягодица" class="cls-1" d="M163.185,364.026c-12.632,7.536-19.747,12.87-24.023,19.826-4.276,6.957-3.478,19.478,2.319,32s17.855,26.553,24.116,26.553,16.522,7.949,27.13,3.881c9.211-3.532,5.642-9.896,6.586-18.222,1.316-11.61,4.197-10.937,5.762-38.473.377-6.629-1.13-17.681-2.985-21.391-1.855-3.71-5.653-8.464-7.276-10.551-1.623-2.087-2.667-6.672-16.232-.696-5.618,2.475-7.317,2.251-15.397,7.072h0ZM181.828,347.91c-3.71-2.087-21.29-7.424-28.29-3.478-6.377,3.594-15.536,24.294-15.072,31.42,7.582-4.638,22.319-16.759,29.043-19.478,6.725-2.719,17.101-5.449,17.101-5.449l-2.783-3.015h0Z"/>
        <path id="_Правая_ягодица" data-name="Правая_ягодица" class="cls-1" d="M250.385,364.026c12.632,7.536,19.747,12.87,24.023,19.826,4.276,6.957,3.478,19.478-2.319,32s-17.855,26.553-24.116,26.553-16.522,7.949-27.13,3.881c-9.211-3.532-5.642-9.896-6.586-18.222-1.316-11.61-4.197-10.937-5.762-38.473-.377-6.629,1.13-17.681,2.985-21.391,1.855-3.71,5.653-8.464,7.276-10.551,1.623-2.087,2.667-6.672,16.232-.696,5.618,2.475,7.317,2.251,15.397,7.072h0ZM231.741,347.91c3.71-2.087,21.29-7.424,28.29-3.478,6.377,3.594,15.536,24.294,15.072,31.42-7.582-4.638-22.319-16.759-29.043-19.478-6.725-2.719-17.101-5.449-17.101-5.449l2.783-3.015h0Z"/>
        <path id="_Поясница" data-name="Поясница" class="cls-1" d="M197.133,256.78c-.905-1.863-2.319,3.246-5.101,8.116-2.783,4.87-12.522,28.058-14.377,33.159-.9,2.474-14.493,35.188-10.493,37.797,11.61,7.572,31.826,20.522,31.826,20.522,6.029-23.536,2.087-91.478-1.855-99.594h0ZM216.437,256.78c.905-1.863,2.319,3.246,5.101,8.116,2.783,4.87,12.522,28.058,14.377,33.159.9,2.474,14.493,35.188,10.493,37.797-11.61,7.572-31.826,20.522-31.826,20.522-6.029-23.536-2.087-91.478,1.855-99.594h0Z"/>
        <path id="_Шея" data-name="Шея" class="cls-1" d="M190.552,82.352c-.697,1.318-.474,3.161-.374,4.865.223,3.813-.746,8.474-1.277,12.288-.69,4.953-2.997,11.471-5.391,15.826-2.165,3.938-4.628,3.957-8.464,6.398-2.309,1.469-3.34,1.524-5.664,2.965-.508.315-3.073,1.79-2.814,2.511.233.65,3.94.75,4.629.826,6.817.756,13.692.512,20.531.268,2.062-.074,4.123-.147,6.185-.221.899-.032,1.851-.08,2.598-.581,1.299-.87,1.456-2.686,1.483-4.249.228-13.355.456-24.778.684-38.133.02-1.146-.001-2.408-.759-3.269-.492-.559-1.219-.849-1.934-1.057-2.403-.701-5.007-.696-7.407.013-1.034.305-1.657.854-2.025,1.55h-.001ZM223.018,82.352c.697,1.318.473,3.161.374,4.865-.223,3.813.746,8.474,1.277,12.288.69,4.953,2.997,11.471,5.391,15.826,2.165,3.938,4.628,3.957,8.464,6.398,2.309,1.469,3.339,1.524,5.663,2.965.508.315,3.073,1.79,2.814,2.511-.233.65-3.94.75-4.629.826-6.817.756-13.692.512-20.531.268-2.062-.074-4.123-.147-6.185-.221-.899-.032-1.851-.08-2.598-.581-1.299-.87-1.456-2.686-1.483-4.249-.228-13.355-.456-24.778-.684-38.133-.02-1.146.001-2.408.759-3.269.492-.559,1.219-.849,1.934-1.057,2.403-.701,5.007-.696,7.407.013,1.034.305,1.657.854,2.025,1.55h.002Z"/>
      </g>
    </g>
  </g>
</svg>